<svg width="320" height="454" viewBox="0 0 320 454" fill="none" xmlns="http://www.w3.org/2000/svg">
<path d="M-146.916 158.212C-147.208 157.434 -147.429 156.631 -147.575 155.813C-149.874 141.627 -160.711 61.8733 -100.511 35.1041C-70.8651 21.9205 -37.2667 0.167645 71.4341 40.3775C199.727 87.8383 283.565 7.4186 303.329 7.4186C323.093 7.4186 367.891 -21.5852 420.594 35.1041C473.298 91.7933 433.77 160.348 433.77 160.348C433.77 160.348 408.736 224.947 416.641 257.906C424.547 290.865 433.77 317.232 431.135 327.779C428.5 338.326 427.182 409.517 383.702 425.337C340.222 441.157 354.715 438.521 253.261 433.247C151.807 427.974 99.1034 442.476 78.0221 450.386C56.9407 458.296 25.3186 455.659 -31.3375 417.427C-87.9937 379.195 -101.17 391.06 -130.156 373.921C-159.143 356.783 -232.783 261.993 -171.002 193.307C-147.12 166.755 -146.323 159.88 -146.916 158.212Z" fill="#F8F8FF"/>
<path d="M323 96C334.046 96 343 87.0457 343 76C343 64.9543 334.046 56 323 56C311.954 56 303 64.9543 303 76C303 87.0457 311.954 96 323 96Z" fill="white"/>
<path d="M300 86C306.075 86 311 81.0751 311 75C311 68.9249 306.075 64 300 64C293.925 64 289 68.9249 289 75C289 81.0751 293.925 86 300 86Z" fill="white"/>
<path d="M108 165C119.046 165 128 156.046 128 145C128 133.954 119.046 125 108 125C96.9543 125 88 133.954 88 145C88 156.046 96.9543 165 108 165Z" fill="white"/>
<path d="M129.5 158C136.956 158 143 151.956 143 144.5C143 137.044 136.956 131 129.5 131C122.044 131 116 137.044 116 144.5C116 151.956 122.044 158 129.5 158Z" fill="white"/>
<path d="M85 155C91.0751 155 96 150.075 96 144C96 137.925 91.0751 133 85 133C78.9249 133 74 137.925 74 144C74 150.075 78.9249 155 85 155Z" fill="white"/>
<path d="M-38.46 358.549L-37.8015 410.167C-37.8015 410.167 3.21219 437.496 5.80682 439.448C8.40146 441.4 29.85 451.813 39.6029 452.466L41.3612 348.307L35.599 348.083L7.42024 313.038L-3.01757 312.537L-38.4534 358.522" fill="#BAC6F2"/>
<path d="M-38.46 358.549L-2.98464 313.922L0.933651 314.067L5.4117 314.331L7.88121 314.588L35.599 348.116L41.3612 348.333V346.335L35.8163 346.111L9.26414 313.612L9.43536 301.042L-3.42586 300.376L-3.91976 313.242L-38.0188 329.683L-38.46 358.549Z" fill="#E9EDFA"/>
<rect x="12.5107" y="348.927" width="6.45366" height="7.55767" fill="white"/>
<rect x="2.04001" y="348.907" width="6.45366" height="7.55767" fill="white"/>
<rect x="12.5173" y="360.481" width="6.45366" height="7.55767" fill="white"/>
<rect x="2.05316" y="360.468" width="6.45366" height="7.55767" fill="white"/>
<rect x="-5.9678" y="394.741" width="6.45366" height="7.55767" fill="white"/>
<rect x="2.40878" y="386.049" width="6.45366" height="7.55767" fill="white"/>
<rect x="-6.15878" y="385.99" width="6.45366" height="7.55767" fill="white"/>
<rect x="2.49438" y="394.814" width="6.45366" height="7.55767" fill="white"/>
<rect x="18.5034" y="394.992" width="6.45366" height="7.55767" fill="white"/>
<rect x="26.88" y="386.293" width="6.45366" height="7.55767" fill="white"/>
<rect x="18.3124" y="386.234" width="6.45366" height="7.55767" fill="white"/>
<rect x="26.9656" y="395.064" width="6.45366" height="7.55767" fill="white"/>
<rect x="18.161" y="431.89" width="6.45366" height="10.7825" fill="white"/>
<rect x="26.5441" y="423.191" width="6.45366" height="7.55767" fill="white"/>
<rect x="17.9766" y="423.139" width="6.45366" height="7.55767" fill="white"/>
<rect x="1.14439" y="422.98" width="6.45366" height="7.55767" fill="white"/>
<path d="M7.65732 440.569L1.21025 436.368L1.17732 432.22H7.63098L7.65732 440.569Z" fill="white"/>
<rect x="26.6298" y="431.963" width="6.45366" height="10.7364" fill="white"/>
<path d="M74.5444 279.579H86.7584L86.5732 273.628L74.346 273.502L74.5444 279.579Z" fill="#BAC6F2"/>
<path d="M40.4548 335.419L39.2844 452.798C39.2844 452.798 60.2737 456.028 79.1535 451.265C98.0334 446.502 119.896 441.356 119.896 441.356L120.623 336.535L107.913 330.299L87.294 293.835L86.7848 279.579H74.551L74.1608 293.835L52.4374 329.658L40.4548 335.419Z" fill="#E9EDFA"/>
<rect x="71.8397" y="345.486" width="8.01484" height="9.96161" fill="#BAC6F2"/>
<rect x="82.7047" y="345.664" width="8.55048" height="9.78325" fill="#BAC6F2"/>
<rect x="71.6611" y="357.31" width="8.01484" height="9.96161" fill="#BAC6F2"/>
<rect x="82.5261" y="357.489" width="8.55048" height="9.78325" fill="#BAC6F2"/>
<rect x="72.0116" y="381.045" width="8.01484" height="9.96161" fill="#BAC6F2"/>
<rect x="53.1252" y="380.986" width="8.01484" height="9.96161" fill="#BAC6F2"/>
<rect x="100.526" y="381.428" width="8.01484" height="9.96161" fill="#BAC6F2"/>
<rect x="100.758" y="425.311" width="8.01484" height="9.96161" fill="#BAC6F2"/>
<rect x="53.2177" y="425.595" width="8.01484" height="9.96161" fill="#BAC6F2"/>
<rect x="82.8766" y="381.217" width="8.55048" height="9.78325" fill="#BAC6F2"/>
<rect x="71.8331" y="392.87" width="8.01484" height="9.96161" fill="#BAC6F2"/>
<rect x="82.6981" y="393.048" width="8.55048" height="9.78325" fill="#BAC6F2"/>
<rect x="71.8661" y="424.214" width="8.01484" height="9.96161" fill="#BAC6F2"/>
<rect x="82.7311" y="424.393" width="8.55048" height="9.78325" fill="#BAC6F2"/>
<rect x="71.6876" y="436.045" width="8.01484" height="9.96161" fill="#BAC6F2"/>
<rect x="82.5526" y="436.224" width="8.55048" height="9.78325" fill="#BAC6F2"/>
<path d="M57.5756 362.152C60.6691 362.152 63.1768 359.647 63.1768 356.557C63.1768 353.467 60.6691 350.962 57.5756 350.962C54.4822 350.962 51.9745 353.467 51.9745 356.557C51.9745 359.647 54.4822 362.152 57.5756 362.152Z" fill="#BAC6F2"/>
<path d="M103 363.394C106.093 363.394 108.601 360.889 108.601 357.799C108.601 354.709 106.093 352.204 103 352.204C99.9063 352.204 97.3985 354.709 97.3985 357.799C97.3985 360.889 99.9063 363.394 103 363.394Z" fill="#BAC6F2"/>
<path d="M40.4548 335.419H52.6689L52.4771 329.467L40.2498 329.341L40.4548 335.419Z" fill="#BAC6F2"/>
<path d="M108.389 336.535H120.603L120.411 330.583L108.191 330.458L108.389 336.535Z" fill="#BAC6F2"/>
<path d="M81.1044 332.538C86.422 332.538 90.7327 328.232 90.7327 322.92C90.7327 317.608 86.422 313.302 81.1044 313.302C75.7867 313.302 71.476 317.608 71.476 322.92C71.476 328.232 75.7867 332.538 81.1044 332.538Z" fill="#BAC6F2"/>
<path d="M115.505 336.456L116.207 386.855C116.207 386.855 118.044 440.849 118.221 440.671C122.531 436.209 189.121 431.654 196.816 431.47L195.025 326.308L189.285 326.085L161.202 291.132L150.804 290.632L115.505 336.463" fill="#BAC6F2"/>
<path d="M115.505 336.457L150.844 291.98L154.747 292.131L159.208 292.394L161.668 292.644L189.279 326.059L195.019 326.282V324.291L189.495 324.067L163.045 291.671L163.216 279.144L150.404 278.48L149.912 291.31L115.531 330.002L115.505 336.457Z" fill="#E9EDFA"/>
<rect x="137.927" y="326.808" width="6.4288" height="7.53218" fill="white"/>
<rect x="166.28" y="326.874" width="6.4288" height="7.53218" fill="white"/>
<rect x="155.849" y="326.854" width="6.4288" height="7.53218" fill="white"/>
<rect x="147.315" y="326.795" width="6.4288" height="7.53218" fill="white"/>
<rect x="137.94" y="338.323" width="6.4288" height="7.53218" fill="white"/>
<rect x="166.286" y="338.389" width="6.4288" height="7.53218" fill="white"/>
<rect x="155.862" y="338.369" width="6.4288" height="7.53218" fill="white"/>
<rect x="147.328" y="338.31" width="6.4288" height="7.53218" fill="white"/>
<rect x="122.839" y="377.759" width="6.4288" height="7.53218" fill="white"/>
<rect x="131.184" y="369.096" width="6.4288" height="7.53218" fill="white"/>
<rect x="122.649" y="369.037" width="6.4288" height="7.53218" fill="white"/>
<rect x="131.269" y="377.831" width="6.4288" height="7.53218" fill="white"/>
<rect x="148.016" y="377.936" width="6.4288" height="7.53218" fill="white"/>
<rect x="156.367" y="369.273" width="6.4288" height="7.53218" fill="white"/>
<rect x="147.833" y="369.214" width="6.4288" height="7.53218" fill="white"/>
<rect x="156.453" y="378.008" width="6.4288" height="7.53218" fill="white"/>
<rect x="172.393" y="378.186" width="6.4288" height="7.53218" fill="white"/>
<rect x="180.744" y="369.517" width="6.4288" height="7.53218" fill="white"/>
<rect x="172.21" y="369.458" width="6.4288" height="7.53218" fill="white"/>
<rect x="180.83" y="378.258" width="6.4288" height="7.53218" fill="white"/>
<rect x="123.016" y="410.792" width="6.4288" height="7.53218" fill="white"/>
<rect x="131.361" y="402.123" width="6.4288" height="7.53218" fill="white"/>
<rect x="122.826" y="402.064" width="6.4288" height="7.53218" fill="white"/>
<rect x="131.446" y="410.858" width="6.4288" height="7.53218" fill="white"/>
<rect x="148.194" y="410.97" width="6.4288" height="7.53218" fill="white"/>
<rect x="156.544" y="402.301" width="6.4288" height="7.53218" fill="white"/>
<rect x="148.01" y="402.241" width="6.4288" height="7.53218" fill="white"/>
<rect x="156.63" y="411.036" width="6.4288" height="7.53218" fill="white"/>
<rect x="172.571" y="411.213" width="6.4288" height="7.53218" fill="white"/>
<rect x="180.921" y="402.55" width="6.4288" height="7.53218" fill="white"/>
<rect x="172.387" y="402.491" width="6.4288" height="7.53218" fill="white"/>
<rect x="181.007" y="411.285" width="6.4288" height="7.53218" fill="white"/>
<path d="M203.151 312.434C203.151 312.434 220.108 285.244 221.42 282.602C222.731 279.96 222.075 269.393 222.075 269.393H217.485C217.485 269.393 221.42 258.165 232.567 258.165C243.715 258.165 246.993 263.449 248.305 266.091C249.616 268.732 248.961 270.053 248.961 270.053H245.026V280.62L264.043 312.322H271.911L274.495 434.445C274.495 434.445 199.695 430.912 198.115 431.975C197.623 432.305 197.662 428.851 197.584 428.25C197.256 425.675 194.456 332.254 195.866 312.546C195.866 312.566 203.203 312.428 203.151 312.434Z" fill="#E9EDFA"/>
<path d="M251.269 350.945H260.449V337.736C260.449 337.736 255.859 330.471 251.269 337.736V350.945Z" fill="white"/>
<path d="M207.184 352.008H216.364V338.799C216.364 338.799 211.774 331.534 207.184 338.799V352.008Z" fill="white"/>
<path d="M207.184 386.107H216.364V372.898C216.364 372.898 211.774 365.633 207.184 372.898V386.107Z" fill="white"/>
<path d="M229.105 386.503H238.285V373.294C238.285 373.294 233.695 366.029 229.105 373.294V386.503Z" fill="white"/>
<path d="M251.02 386.9H260.2V373.691C260.2 373.691 255.61 366.426 251.02 373.691V386.9Z" fill="white"/>
<path d="M207.741 418.733H216.921V405.524C216.921 405.524 212.331 398.259 207.741 405.524V418.733Z" fill="white"/>
<path d="M229.669 419.129H238.849V405.921C238.849 405.921 234.259 398.656 229.669 405.921V419.129Z" fill="white"/>
<path d="M251.597 419.532H260.777V406.323C260.777 406.323 256.187 399.058 251.597 406.323V419.532Z" fill="white"/>
<path d="M254.121 324.078C257.319 324.078 259.911 321.467 259.911 318.246C259.911 315.025 257.319 312.414 254.121 312.414C250.923 312.414 248.331 315.025 248.331 318.246C248.331 321.467 250.923 324.078 254.121 324.078Z" fill="#E9EDFA"/>
<path d="M212.731 323.193C215.929 323.193 218.521 320.582 218.521 317.361C218.521 314.14 215.929 311.529 212.731 311.529C209.533 311.529 206.941 314.14 206.941 317.361C206.941 320.582 209.533 323.193 212.731 323.193Z" fill="#E9EDFA"/>
<path d="M233.859 351.969C237.057 351.969 239.649 349.358 239.649 346.137C239.649 342.916 237.057 340.305 233.859 340.305C230.661 340.305 228.069 342.916 228.069 346.137C228.069 349.358 230.661 351.969 233.859 351.969Z" fill="#E9EDFA"/>
<path d="M233.426 297.64C236.624 297.64 239.216 295.029 239.216 291.808C239.216 288.588 236.624 285.977 233.426 285.977C230.228 285.977 227.636 288.588 227.636 291.808C227.636 295.029 230.228 297.64 233.426 297.64Z" fill="#E9EDFA"/>
<path d="M223.8 313.57C223.828 312.061 224.372 310.608 225.341 309.455C227.183 307.151 229.915 305.75 232.849 305.605C238.948 305.44 241.623 310.605 241.997 312.718C242.561 315.908 242.436 331.97 242.436 331.97H223.59L223.689 327.195L223.8 313.57Z" fill="white"/>
<path d="M272.178 335.806L274.153 434.931C274.153 434.931 295.826 435.155 309.091 436.812C320.698 438.264 348.591 436.924 348.591 436.924L349.908 336.142L272.225 335.621" fill="#BAC6F2"/>
<path d="M271.625 335.806L349.875 336.136L349.519 317.385H326.339C326.339 317.385 323.463 306.165 312.672 306.165C299.433 306.165 297.228 317.979 297.228 317.979L271.553 317.708L271.625 335.806Z" fill="#BAC6F2"/>
<rect x="279.901" y="346.465" width="13.8382" height="15.048" fill="white"/>
<rect x="304.904" y="346.247" width="13.8382" height="15.048" fill="white"/>
<rect x="304.924" y="407.112" width="13.8382" height="15.048" fill="white"/>
<rect x="279.907" y="406.802" width="13.8382" height="15.048" fill="white"/>
<rect x="304.364" y="374.343" width="13.8382" height="15.048" fill="white"/>
<rect x="304.364" y="374.343" width="13.8382" height="15.048" fill="white"/>
<rect x="280.006" y="374.99" width="13.8382" height="15.048" fill="white"/>
<path d="M311.942 328.255C316.145 328.255 319.552 324.839 319.552 320.626C319.552 316.412 316.145 312.996 311.942 312.996C307.739 312.996 304.331 316.412 304.331 320.626C304.331 324.839 307.739 328.255 311.942 328.255Z" fill="white"/>
</svg>
