<svg width="234" height="208" viewBox="0 0 234 208" fill="none" xmlns="http://www.w3.org/2000/svg">
<path d="M85.7953 66.8876C90.6028 66.8876 94.5001 62.9931 94.5001 58.1889C94.5001 53.3847 90.6028 49.4902 85.7953 49.4902C80.9877 49.4902 77.0905 53.3847 77.0905 58.1889C77.0905 62.9931 80.9877 66.8876 85.7953 66.8876Z" fill="white"/>
<path d="M95.2611 65.6733C98.8127 65.6733 101.692 62.7961 101.692 59.2469C101.692 55.6977 98.8127 52.8206 95.2611 52.8206C91.7094 52.8206 88.8302 55.6977 88.8302 59.2469C88.8302 62.7961 91.7094 65.6733 95.2611 65.6733Z" fill="white"/>
<path d="M157.612 62.8749C162.012 62.8749 165.58 59.31 165.58 54.9126C165.58 50.5151 162.012 46.9503 157.612 46.9503C153.211 46.9503 149.644 50.5151 149.644 54.9126C149.644 59.31 153.211 62.8749 157.612 62.8749Z" fill="white"/>
<path d="M148.705 61.6305C151.956 61.6305 154.592 58.9969 154.592 55.7482C154.592 52.4995 151.956 49.8659 148.705 49.8659C145.454 49.8659 142.819 52.4995 142.819 55.7482C142.819 58.9969 145.454 61.6305 148.705 61.6305Z" fill="white"/>
<path d="M168.079 62.3819C171.33 62.3819 173.966 59.7483 173.966 56.4996C173.966 53.2509 171.33 50.6173 168.079 50.6173C164.828 50.6173 162.193 53.2509 162.193 56.4996C162.193 59.7483 164.828 62.3819 168.079 62.3819Z" fill="white"/>
<path d="M-34.5604 45.205L-34.2598 165.751H61.6245L61.324 45.505L-34.5604 45.205Z" fill="#E9EDFA"/>
<path d="M-38.7686 34.105L64.3297 34.405L64.6303 45.505H-38.7686V34.105Z" fill="#BAC6F2"/>
<rect x="-38.7686" y="67.705" width="103.098" height="3.3" fill="#BAC6F2"/>
<rect x="-34.2599" y="70.705" width="95.2832" height="3.3" fill="#BAC6F2"/>
<rect x="-34.5604" y="44.605" width="95.2832" height="3.3" fill="#BAC6F2"/>
<rect x="-38.1674" y="165.505" width="103.098" height="3.3" fill="#BAC6F2"/>
<path d="M-24.9419 51.805L-28.2483 55.405V60.505L-25.2425 63.505L52.006 63.805L55.0118 61.105V55.405L51.4049 51.805H-24.9419Z" fill="#BAC6F2"/>
<rect x="-2.09802" y="114.805" width="9.6185" height="3.6" fill="#B1C1F2"/>
<rect x="-7.80896" y="120.805" width="9.6185" height="3.6" fill="#B1C1F2"/>
<rect x="9.62451" y="121.105" width="9.6185" height="3.6" fill="#B1C1F2"/>
<rect x="-7.40918" y="77.9709" width="9.6185" height="3.6" fill="#B1C1F2"/>
<rect x="46.5957" y="119.005" width="9.6185" height="3.6" fill="#B1C1F2"/>
<rect x="48.0985" y="74.905" width="9.6185" height="3.6" fill="#B1C1F2"/>
<rect x="36.7065" y="131.002" width="19.5165" height="35.448" rx="3.43" fill="#BAC6F2"/>
<rect x="38.5762" y="134.995" width="15.8164" height="5.682" rx="2.841" fill="white"/>
<path d="M1.46687 93.736H3.42964L25.3478 93.715C25.3478 93.715 26.5501 87.115 21.7409 83.215C16.9316 79.315 11.951 79.315 8.34409 81.115C4.73716 82.915 1.33461 85.624 1.46687 93.736Z" fill="#BAC6F2"/>
<path d="M3.42963 93.733L3.26432 109.729H23.6585V93.328L3.099 92.998L3.42963 93.733Z" fill="#BAC6F2"/>
<path d="M3.26428 109.729L1.92371 109.63V112.339H24.978L24.8668 109.63L3.26428 109.729Z" fill="#BAC6F2"/>
<rect x="5.8042" y="94.627" width="7.12069" height="6.543" fill="white"/>
<rect x="14.3707" y="94.552" width="6.80509" height="6.543" fill="white"/>
<rect x="14.3346" y="102.787" width="6.93734" height="6.543" fill="white"/>
<rect x="5.87036" y="102.784" width="7.12069" height="6.543" fill="white"/>
<path d="M4.34342 83.986L3.50781 93.778L7.58365 93.649L8.41325 81.1L5.83729 82.609L4.65602 83.659" fill="#B1C1F2"/>
<path d="M22.817 84.19L23.5835 93.784L19.8503 93.655L19.1199 81.466L21.4223 82.963L22.5314 83.869" fill="#B1C1F2"/>
<path d="M9.71769 83.794L9.16162 93.685L12.7175 93.745L13.514 79.969L11.975 80.011L10.1175 80.362" fill="#B1C1F2"/>
<path d="M18.0768 83.758L18.5757 93.646L15.3806 93.706L14.7013 80.026L16.3815 80.374L17.7792 80.821" fill="#B1C1F2"/>
<path d="M31.5035 93.736H33.4663L55.3845 93.715C55.3845 93.715 56.5868 87.115 51.7775 83.215C46.9683 79.315 41.9877 79.315 38.3808 81.115C34.7738 82.915 31.3683 85.624 31.5035 93.736Z" fill="#BAC6F2"/>
<path d="M33.4633 93.733L33.298 109.729H53.6952V93.328L33.1327 92.998L33.4633 93.733Z" fill="#BAC6F2"/>
<path d="M33.298 109.729L31.9574 109.63V112.339H55.0147L54.9005 109.63L33.298 109.729Z" fill="#BAC6F2"/>
<rect x="35.8379" y="94.627" width="7.12069" height="6.543" fill="white"/>
<rect x="44.4043" y="94.552" width="6.80509" height="6.543" fill="white"/>
<rect x="44.3713" y="102.787" width="6.93734" height="6.543" fill="white"/>
<rect x="35.9041" y="102.784" width="7.12069" height="6.543" fill="white"/>
<path d="M34.38 83.986L33.5444 93.778L37.6203 93.649L38.4469 81.1L35.8709 82.609L34.6896 83.659" fill="#B1C1F2"/>
<path d="M52.8536 84.19L53.6201 93.784L49.8839 93.655L49.1565 81.466L51.4589 82.963L52.5681 83.869" fill="#B1C1F2"/>
<path d="M39.7544 83.794L39.1984 93.685L42.7542 93.745L43.5477 79.969L42.0118 80.011L40.1542 80.362" fill="#B1C1F2"/>
<path d="M48.1105 83.758L48.6125 93.646L45.4143 93.706L44.738 80.026L46.4153 80.374L47.813 80.821" fill="#B1C1F2"/>
<path d="M-28.9157 139.273H-23.7187L34.2929 139.252C34.2929 139.252 39.0029 131.956 26.2734 127.972C13.544 123.988 -7.39129 125.122 -16.9286 126.961C-26.466 128.8 -29.2704 130.99 -28.9157 139.273Z" fill="#BAC6F2"/>
<path d="M-28.1552 139.42L-28.6632 165.559H34.1246V138.76L-29.1711 138.22L-28.1552 139.42Z" fill="#BAC6F2"/>
<rect x="-25.1104" y="139.774" width="55.3214" height="13.311" fill="white"/>
<rect x="-5.60278" y="155.23" width="15.9336" height="6.543" fill="white"/>
<rect x="13.7544" y="155.344" width="15.9336" height="6.543" fill="white"/>
<path d="M26.3336 128.959L27.2263 138.412L22.9701 138.289L22.2157 126.835L24.7105 127.594L26.0901 128.314" fill="#B1C1F2"/>
<path d="M19.27 129.055L20.0275 138.322L15.5038 138.253L14.6832 125.698L16.8895 126.01L18.8823 126.232" fill="#B1C1F2"/>
<path d="M10.965 128.983L11.7225 138.25L7.1988 138.184L6.35718 125.332L8.5003 125.437L10.5412 125.542" fill="#B1C1F2"/>
<path d="M1.13008 129.328L1.88753 138.595L-2.63616 138.529L-3.47778 125.68L-1.22345 125.602L0.895627 125.557" fill="#B1C1F2"/>
<path d="M69.8205 107.953L69.5375 168.312L170.299 168.587V107.392L69.8205 107.953Z" fill="#E9EDFA"/>
<rect x="68.9805" y="165.502" width="102.17" height="3.31679" fill="#BAC6F2"/>
<rect x="64.2502" y="107.896" width="111.744" height="3.99824" fill="#BAC6F2"/>
<path d="M66.0166 108.547C66.0166 108.547 67.2081 90.5759 78.8251 90.2321C88.3928 89.9487 137.431 90.1929 154.324 90.3497C164.273 90.4432 172.792 97.8879 174.004 107.884C174.03 108.103 174.054 108.324 174.076 108.547H66.0166Z" fill="#BAC6F2"/>
<path d="M164.154 135.108H170.111V139.028H164.452L164.154 135.108Z" fill="#B1C1F2"/>
<path d="M166.611 118.735H170.186V122.655H166.909L166.611 118.735Z" fill="#B1C1F2"/>
<rect x="74.1783" y="147.999" width="9.53191" height="3.61832" fill="#B1C1F2"/>
<rect x="70.8064" y="132.105" width="9.53191" height="3.61832" fill="#B1C1F2"/>
<rect x="76.7281" y="119.233" width="9.53191" height="3.61832" fill="#B1C1F2"/>
<rect x="110.623" y="116.061" width="9.53191" height="3.61832" fill="#B1C1F2"/>
<rect x="158.717" y="128.095" width="9.53191" height="3.61832" fill="#B1C1F2"/>
<rect x="153.561" y="156.037" width="9.53191" height="3.61832" fill="#B1C1F2"/>
<rect x="130.932" y="113.169" width="9.53191" height="3.61832" fill="#B1C1F2"/>
<path d="M88.1129 139.037H93.2631L150.752 139.016C150.752 139.016 155.42 131.683 142.805 127.679C130.19 123.674 109.444 124.814 99.992 126.663C90.5405 128.511 87.7614 130.712 88.1129 139.037Z" fill="#BAC6F2"/>
<path d="M88.8664 139.185L88.363 165.457H150.586V138.522L87.8596 137.979L88.8664 139.185Z" fill="#BAC6F2"/>
<rect x="111.216" y="139.541" width="35.4915" height="13.3787" fill="white"/>
<rect x="111.216" y="155.076" width="15.7902" height="6.5763" fill="white"/>
<rect x="92.2592" y="139.791" width="15.7902" height="21.9753" fill="white"/>
<rect x="130.402" y="155.19" width="15.7902" height="6.5763" fill="white"/>
<path d="M93.9333 128.74L92.8103 138.241L98.175 138.118L99.1252 126.605L95.9826 127.368L94.2431 128.092" fill="#B1C1F2"/>
<path d="M102.786 128.837L101.886 138.151L107.269 138.081L108.246 125.463L105.622 125.776L103.248 125.999" fill="#B1C1F2"/>
<path d="M142.868 128.671L143.749 138.172L139.535 138.048L138.787 126.536L141.256 127.299L142.623 128.022" fill="#B1C1F2"/>
<path d="M135.868 128.767L136.615 138.081L132.132 138.012L131.319 125.393L133.506 125.707L135.483 125.93" fill="#B1C1F2"/>
<path d="M127.634 128.695L128.385 138.009L123.902 137.943L123.068 125.028L125.192 125.131L127.214 125.236" fill="#B1C1F2"/>
<path d="M117.891 129.045L118.639 138.356L114.156 138.29L113.322 125.375L115.556 125.297L117.656 125.255" fill="#B1C1F2"/>
<rect x="180.956" y="163.896" width="2.84644" height="5.92978" rx="1.42322" fill="white"/>
<rect x="190.109" y="163.896" width="2.84644" height="5.92978" rx="1.42322" fill="white"/>
<path d="M179.846 142.339C179.846 142.339 177.637 165.719 178.058 166.04C178.479 166.36 195.304 166.575 195.725 166.254C196.146 165.934 194.462 142.554 194.148 142.445C193.834 142.336 180.371 142.019 179.846 142.339Z" fill="#BAC6F2"/>
<rect x="182.052" y="148.238" width="10.4125" height="1.17911" rx="0.589556" fill="white"/>
<rect x="180.792" y="151.99" width="12.7251" height="1.17911" rx="0.589556" fill="white"/>
</svg>
