<svg width="232" height="149" viewBox="0 0 232 149" fill="none" xmlns="http://www.w3.org/2000/svg">
<path d="M0.734675 149C0.734675 149 -4.8213 103.068 14.6246 89.1488C31.5578 77.0246 45.6432 69.6615 74.3491 68.7336C103.055 67.8056 118.792 67.8009 135.926 48.7847C153.059 29.7685 176.223 1.03428 202.127 0.069008C227.129 -0.863618 242.406 7.02639 256.756 62.7041C271.107 118.382 256.291 147.144 255.826 147.606C255.505 147.937 0.734675 149 0.734675 149Z" fill="#F8F8FF"/>
<path d="M118.847 112.85C120.417 93.7006 114.57 65.677 121.393 61.7771C128.129 57.9332 130.425 56.6768 137.414 48.8629C154.454 29.8115 177.483 1.03126 203.276 0.0691185C228.147 -0.865001 243.344 7.03765 257.62 62.8046C264.758 90.6881 264.337 105.419 263.638 114.223C263.258 119.067 262.879 125.372 262.647 125.601C262.328 125.932 117.547 128.753 118.847 112.85Z" fill="#E9EDFC"/>
<path d="M60.0959 50.062L58.0776 147.496C58.0776 148.193 59.9041 147.964 60.3607 147.964H63.1005L62.6804 50.221L79 50.6889L71.9132 9.67263C71.5475 7.54779 69.7451 5.99903 67.6393 6.00002H56.379C53.6871 5.99245 51.3777 7.9643 50.8995 10.6785L44 49.7579L60.0959 50.062Z" fill="#E1E6FC"/>
<path d="M30.7948 125.09C30.7948 125.09 30.6914 128.862 31.34 129.283C31.6185 129.498 31.9382 129.655 32.28 129.745L35.5089 146.881C35.5089 146.881 44.9747 148.573 49.7076 146.669L52.9365 129.741L54.0128 129.315L54.4452 125.086C54.4452 125.086 42.8409 121.281 30.7948 125.09Z" fill="#E1E6FC"/>
<path d="M31.8805 129.634C31.8805 129.634 44.5705 130.591 46.0698 130.17C47.5691 129.75 47.1461 126.361 47.1461 126.361L53.383 125.728C53.383 125.728 53.383 129.325 52.9506 129.75C52.474 130.313 52.109 130.959 51.8743 131.654C51.8743 131.867 49.294 146.909 49.294 146.909C49.294 146.909 45.205 147.542 44.5611 147.542C43.9172 147.542 46.2813 135.084 46.2813 134.211C46.2813 133.337 46.2813 131.673 45.6374 131.673C44.9935 131.673 32.5526 132.038 32.4774 130.674C32.3762 130.282 32.1701 129.922 31.8805 129.634Z" fill="#BAC4F6"/>
<path d="M36.8766 125.881C36.8766 125.881 33.3375 123.435 31.4575 123.213C29.5775 122.991 27.3967 122.751 25.5167 122.464C23.6367 122.178 21.2397 121.35 21.2867 120.269C21.3337 119.187 21.5593 118.669 22.6638 118.027C23.595 117.43 24.6501 117.047 25.7517 116.903C26.5789 116.829 35.0671 118.997 38.6062 124.179L40.0162 125.881H36.8766Z" fill="#BAC4F6"/>
<path d="M24.6237 119.834C24.6237 119.834 27.8761 119.793 29.6574 120.361C31.05 120.873 32.3999 121.491 33.6947 122.21L39.0198 125.858" fill="#BAC4F6"/>
<path d="M24.6237 119.834C24.6237 119.834 27.8761 119.793 29.6574 120.361C31.05 120.873 32.3999 121.491 33.6947 122.21L39.0198 125.858" stroke="white" stroke-width="0.75" stroke-linecap="round"/>
<path d="M40.6037 125.737C40.6037 125.737 36.4865 120.236 34.8838 118.688C33.2811 117.139 31.4058 115.369 29.8595 113.751C28.3132 112.133 26.3627 109.812 27.1852 108.86C28.0077 107.908 28.5952 107.261 30.0945 107.473C31.2667 107.597 32.3893 108.005 33.361 108.661C34.1882 109.188 41.6659 116.201 42.761 124.258L43.8373 125.89L40.6037 125.737Z" fill="#BAC4F6"/>
<path d="M30.9311 110.709C30.9311 110.709 34.1365 112.595 35.3961 114.407C36.5852 116.099 38.4699 119.127 38.4699 119.127L40.6084 124.901" stroke="white" stroke-width="0.75" stroke-linecap="round"/>
<path d="M42.6623 126.01C42.6623 126.01 37.8542 115.743 36.9565 113.714C36.0588 111.685 32.3881 108.629 31.575 106.558C30.7619 104.487 30.2449 102.98 31.105 101.843C31.9651 100.706 34.1741 99.7627 35.5841 100.456C36.9142 101.094 38.6438 103.036 39.3864 104.02C39.9786 104.797 43.9125 118.743 43.5882 121.961L44.3402 126.079L42.6623 126.01Z" fill="#E9EDFC"/>
<path d="M34.1929 104.237C34.1929 104.237 36.9518 107.732 37.7884 109.785C38.7284 112.096 39.6684 116.501 39.5462 115.794L42.4179 125.331" stroke="white" stroke-width="0.75" stroke-linecap="round"/>
<path d="M40.0256 125.931C40.0256 125.931 35.7956 121.184 33.7323 120.264C31.669 119.344 29.3237 118.304 27.3074 117.315C25.2911 116.326 22.8706 114.648 23.2795 113.64C23.6884 112.632 24.1067 112.225 25.5637 112.036C26.8366 111.824 28.1394 111.859 29.3989 112.138C30.3389 112.378 39.1749 117.629 41.445 123.865L42.4931 126.015L40.0256 125.931Z" fill="#E9EDFC"/>
<path d="M27.1805 114.5C27.1805 114.5 30.8418 115.683 32.6607 116.894C34.0457 117.891 35.3586 118.982 36.5899 120.158L40.6507 125.973" stroke="white" stroke-width="0.75" stroke-linecap="round"/>
<path d="M51.0894 126.038C51.0894 126.038 54.9199 123.726 56.955 123.491C58.9901 123.255 61.3448 123.056 63.3846 122.774C65.4244 122.492 68.0141 121.711 67.9624 120.676C67.9107 119.64 67.671 119.145 66.4725 118.531C65.4437 117.955 64.3069 117.59 63.1308 117.458C62.2331 117.389 53.0493 119.455 49.2188 124.392L47.6725 126.019L51.0894 126.038Z" fill="#BAC4F6"/>
<path d="M64.3387 120.269C64.3387 120.269 60.8231 120.227 58.8914 120.773C57.3935 121.254 55.9327 121.841 54.5204 122.529L49.4115 125.904" fill="#BAC4F6"/>
<path d="M64.3387 120.269C64.3387 120.269 60.8231 120.227 58.8914 120.773C57.3935 121.254 55.9327 121.841 54.5204 122.529L49.4115 125.904" stroke="white" stroke-width="0.75" stroke-linecap="round"/>
<path d="M47.0521 125.904C47.0521 125.904 51.503 120.652 53.242 119.173C54.981 117.694 57.002 116.002 58.6799 114.458C60.3578 112.914 62.4634 110.7 61.5704 109.785C60.6774 108.869 60.0476 108.255 58.4214 108.449C57.1716 108.559 55.9633 108.947 54.887 109.581C53.9893 110.08 45.9006 116.783 44.7162 124.475L43.5553 126.033L47.0521 125.904Z" fill="#BAC4F6"/>
<path d="M57.5237 111.56C57.5237 111.56 54.0551 113.358 52.6921 115.073C51.4043 116.691 49.3692 119.58 49.3692 119.58L47.0521 125.09" stroke="white" stroke-width="0.75" stroke-linecap="round"/>
<path d="M44.8337 126.167C44.8337 126.167 50.0366 116.363 51.0048 114.421C51.973 112.48 55.9492 109.577 56.8281 107.589C57.707 105.601 58.2663 104.168 57.3451 103.086C56.4239 102.005 54.0222 101.099 52.4994 101.746C51.0612 102.356 49.2094 104.21 48.3869 105.148C47.7477 105.892 43.4895 119.206 43.8373 122.284L43.0242 126.218L44.8337 126.167Z" fill="#E9EDFC"/>
<path d="M44.3308 126.042C44.3308 126.042 44.7491 116.474 45.7408 113.367C46.4129 111.31 47.0709 107.82 47.9498 105.855C48.8287 103.891 47.4798 101.307 46.5774 100.22C45.675 99.134 43.2874 99.342 41.7458 99.9846C40.3076 100.595 39.4804 102.569 39.2971 103.623C39.1326 104.584 42.5871 116.127 42.2205 120.347L42.5166 126.098L44.3308 126.042Z" fill="#BAC4F6"/>
<path d="M53.994 105.388C53.994 105.388 51.0095 108.726 50.1024 110.681C49.0778 112.896 48.0579 117.098 48.2224 116.404L44.8431 125.742" stroke="white" stroke-width="0.75" stroke-linecap="round"/>
<path d="M47.6819 126.093C47.6819 126.093 52.2832 121.558 54.4922 120.68C56.7012 119.802 59.2627 118.831 61.4435 117.865C63.6243 116.899 66.2422 115.318 65.8004 114.356C65.3586 113.395 64.9027 113.007 63.3282 112.826C61.9494 112.624 60.5455 112.657 59.1781 112.923C58.1441 113.154 48.6031 118.165 46.145 124.124L45.0123 126.176L47.6819 126.093Z" fill="#E9EDFC"/>
<path d="M61.5845 115.17C61.5845 115.17 57.6224 116.298 55.6578 117.454C54.17 118.396 52.749 119.437 51.4043 120.569L46.9205 125.46" stroke="white" stroke-width="0.75" stroke-linecap="round"/>
<path d="M43.3814 102.028C43.3814 102.028 44.1804 110.224 43.7151 112.429C43.5224 113.353 43.6164 119.118 43.6164 119.118L43.4237 125.502" stroke="white" stroke-width="0.75" stroke-linecap="round"/>
<path d="M44.402 48L78.3056 48.619L79 51L44 50.1009L44.402 48Z" fill="#BAC4F6"/>
<path d="M214.283 53.6217L214 121.883L256.978 122C256.978 122 257.289 86.0506 255.585 51.6226L214.371 51L214.283 53.6217Z" fill="#BAC4F6"/>
<path d="M173.15 63L172 123H209L208.738 63H173.15Z" fill="#BAC4F6"/>
<path d="M119 97L172 97.2804L171.404 122L119.2 121.981L119 97Z" fill="#BAC4F6"/>
<path d="M115 62.8614L115.131 121.908C115.131 121.908 115.453 125.621 118.994 125.78C122.536 125.939 262.124 126 262.124 126C262.124 126 263.37 122.085 262.89 121.922C262.409 121.758 119.573 121.763 119.573 121.763C119.573 121.763 119.615 119.672 119.615 118.335C119.615 116.847 119.535 61 119.535 61C118.089 61.7707 116.57 62.3943 115 62.8614Z" fill="white"/>
<path d="M118 69L259.253 69.7365L260 72.4059L118 73V69Z" fill="white"/>
<path d="M158 23.586V122.71L161 123V21L158 23.586Z" fill="white"/>
<path d="M225.084 4L225 122L228.461 121.717L229 6.30328L225.084 4Z" fill="white"/>
<path d="M162 21.5349L242 22L239.698 18.0354L166.552 18L162 21.5349Z" fill="white"/>
<path d="M175.5 40C180.194 40 184 36.1944 184 31.5C184 26.8056 180.194 23 175.5 23C170.806 23 167 26.8056 167 31.5C167 36.1944 170.806 40 175.5 40Z" fill="white"/>
<path d="M183 40C185.761 40 188 37.7614 188 35C188 32.2386 185.761 30 183 30C180.239 30 178 32.2386 178 35C178 37.7614 180.239 40 183 40Z" fill="white"/>
<path d="M237.5 48C242.194 48 246 44.1944 246 39.5C246 34.8056 242.194 31 237.5 31C232.806 31 229 34.8056 229 39.5C229 44.1944 232.806 48 237.5 48Z" fill="white"/>
<path d="M229 46C231.761 46 234 43.7614 234 41C234 38.2386 231.761 36 229 36C226.239 36 224 38.2386 224 41C224 43.7614 226.239 46 229 46Z" fill="white"/>
</svg>
