<svg width="38" height="40" viewBox="0 0 38 40" fill="none" xmlns="http://www.w3.org/2000/svg">
<path fill-rule="evenodd" clip-rule="evenodd" d="M23.5825 3.26976C24.0058 3.57992 24.515 3.74721 25.038 3.74721H28.9031C29.9758 3.74721 30.9268 4.44406 31.2584 5.47368L32.4524 9.18285C32.6142 9.68471 32.9292 10.1221 33.3521 10.4322L36.4789 12.7244C37.3468 13.3611 37.7102 14.4887 37.3786 15.5183L36.1842 19.2275C36.0227 19.7294 36.0227 20.2703 36.1842 20.7721L37.3786 24.4813C37.7102 25.5109 37.3468 26.6389 36.4789 27.2749L33.3521 29.5674C32.9292 29.8779 32.6142 30.3153 32.4524 30.8172L31.2584 34.5263C30.9268 35.5559 29.9758 36.2528 28.9031 36.2528H25.038C24.515 36.2528 24.0058 36.4201 23.5825 36.7302L20.4557 39.0227C19.5877 39.6591 18.4125 39.6591 17.5445 39.0227L14.4178 36.7302C13.9944 36.4201 13.4852 36.2528 12.9618 36.2528H9.09714C8.02442 36.2528 7.07342 35.5559 6.74185 34.5263L5.54741 30.8172C5.38596 30.3153 5.07101 29.8779 4.6477 29.5674L1.52129 27.2749C0.652998 26.6389 0.290007 25.5109 0.621214 24.4813L1.81601 20.7721C1.97746 20.2703 1.97746 19.7294 1.81601 19.2275L0.621214 15.5183C0.290007 14.4887 0.652998 13.3611 1.52129 12.7244L4.6477 10.4322C5.07101 10.1221 5.38596 9.68471 5.54741 9.18285L6.74185 5.47368C7.07342 4.44406 8.02442 3.74721 9.09714 3.74721H12.9618C13.4852 3.74721 13.9944 3.57992 14.4178 3.26976L17.5445 0.977268C18.4125 0.340911 19.5877 0.340911 20.4557 0.977268L23.5825 3.26976Z" stroke="#56BF0D"/>
<path d="M23.2869 3.67308L20.16 1.3805C19.4681 0.873167 18.5321 0.873167 17.8402 1.3805L14.7133 3.67308C14.2041 4.04616 13.5913 4.24721 12.9618 4.24721H9.09714C8.24198 4.24721 7.48295 4.80354 7.21779 5.62694L6.02339 9.33597C5.82971 9.93805 5.45166 10.463 4.94334 10.8355L1.81696 13.1276C1.12269 13.6367 0.831745 14.54 1.09713 15.365L2.29199 19.0744C2.48547 19.6758 2.48547 20.3238 2.29193 20.9254L1.0972 24.6344C0.83173 25.4596 1.12275 26.3632 1.81695 26.8717L4.94345 29.1642C5.45182 29.5372 5.82975 30.0621 6.02335 30.6639L7.21778 34.3731C7.48295 35.1965 8.24198 35.7528 9.09714 35.7528H12.9618C13.5913 35.7528 14.2041 35.9538 14.7134 36.327L17.8402 38.6195C18.5321 39.1268 19.4681 39.1268 20.16 38.6195L23.2869 36.3269C23.7961 35.9539 24.4089 35.7528 25.038 35.7528H28.9031C29.7582 35.7528 30.5173 35.1965 30.7824 34.3731L31.9766 30.6637C32.1706 30.062 32.5484 29.5372 33.0565 29.1642L36.1834 26.8716C36.8773 26.3631 37.1683 25.4595 36.9027 24.6345L35.7082 20.9252C35.5147 20.3238 35.5147 19.6758 35.7083 19.0743L36.9027 15.3651C37.1683 14.5402 36.8774 13.6368 36.1833 13.1276L33.0565 10.8354C32.5485 10.463 32.1706 9.93814 31.9765 9.33606L30.7824 5.62694C30.5173 4.80354 29.7582 4.24721 28.9031 4.24721H25.038C24.4089 4.24721 23.7961 4.04612 23.2869 3.67308Z" fill="white"/>
</svg>
