<svg width="25" height="25" viewBox="0 0 25 25" fill="none" xmlns="http://www.w3.org/2000/svg">
<path fill-rule="evenodd" clip-rule="evenodd" d="M18.75 13.0939C19.3678 13.5633 19.8432 13.9245 20.3186 14.2857C20.391 14.2595 20.4633 14.2334 20.5357 14.2071C20.5019 13.6764 20.4681 13.1456 20.4269 12.5C19.8117 12.7179 19.3667 12.8755 18.75 13.0939M6.01425 21.4286L6.13712 21.3301C5.95057 20.9629 5.80406 20.5645 5.57013 20.2341C4.85428 19.2229 4.8616 18.982 5.74924 18.1413C5.83691 18.0584 5.93036 17.9824 6.01767 17.8994C6.35865 17.575 6.31635 17.0825 5.943 16.8246C5.64929 16.6216 5.37224 16.3924 4.95281 16.0714C4.69407 16.5105 4.34258 16.9533 4.15556 17.4626C3.91017 18.1308 3.81258 18.8571 3.61645 19.5473C3.49866 19.9621 3.61114 20.2302 3.96404 20.4078C4.64599 20.7511 5.33065 21.0887 6.01425 21.4286M12.5 22.3214C12.0179 21.9429 11.6787 21.6604 11.3177 21.3999C11.1502 21.279 10.9473 21.1879 10.7475 21.1057C10.4164 20.9692 10.0471 20.8867 9.74245 20.7183C8.66022 20.1203 8.38867 20.317 9.29415 19.1347C9.59927 18.7362 9.74788 18.375 9.40968 17.8571C9.09765 17.8946 8.69453 17.8517 8.42656 17.9929C7.68278 18.385 6.99539 18.8538 6.25 19.3144C6.31604 20.8368 6.84432 21.4221 8.5906 21.8433C8.84709 21.9052 9.10111 21.99 9.36315 22.018C10.3866 22.1272 11.4128 22.218 12.5 22.3214M17.9567 5.30676C18.2863 5.51655 18.616 5.72645 18.9781 5.95707C18.5696 6.42425 18.7211 6.84325 19.0189 7.26294C19.1726 7.47956 19.2902 7.72101 19.4278 7.94902C19.7839 8.53965 20.1158 9.13257 20.0378 9.86363C20.0188 10.0427 20.0967 10.2317 20.139 10.4657C20.926 10.4126 21.6902 10.3757 22.4512 10.3047C23.0098 10.2526 23.4104 10.404 23.6735 10.9326C23.8127 11.2121 24.0475 11.4585 24.2806 11.6769C25.1506 12.4913 25.2269 13.3627 24.5345 14.319C24.3075 14.6328 23.978 14.8371 23.7483 14.5826C23.5509 14.3638 23.4625 13.8401 23.5924 13.5821C23.9742 12.8242 24.0026 12.8693 23.4126 12.1799C22.914 11.5974 22.3897 11.19 21.55 11.3398C21.0958 11.4209 20.9322 11.6097 20.9809 12.0614C21.0434 12.6423 21.1395 13.2404 21.0605 13.8094C20.9909 14.3116 20.7115 14.7886 20.4994 15.2658C20.4572 15.3608 20.3077 15.4247 20.1942 15.4702C19.9442 15.5708 19.6857 15.6505 19.3585 15.7637C19.341 15.465 19.3209 15.1221 19.3008 14.779C19.2697 14.8052 19.2386 14.8313 19.2075 14.8574C18.8994 14.534 18.56 14.2337 18.2918 13.8809C18.0103 13.5109 17.7971 13.0904 17.5174 12.632C17.2687 12.8257 17.0578 12.9348 16.9237 13.1034C16.0284 14.2293 14.8476 14.8595 13.4449 15.1429C13.3132 15.1694 13.1587 15.3515 13.1154 15.4916C12.9704 15.9612 12.8889 16.4496 12.7502 16.9213C12.5495 17.6036 12.1602 18.1707 11.499 18.4797C11.0071 18.7095 10.9258 19.1197 11.0491 19.5129C11.1497 19.8337 11.4388 20.1206 11.7031 20.3589C11.8583 20.4986 12.1434 20.4861 12.3445 20.5903C13.0156 20.938 13.7105 21.2576 14.3281 21.6841C14.8379 22.0362 15.365 22.2711 15.944 22.491C17.0858 22.9249 18.1699 23.508 19.2741 24.0372C19.8575 24.3167 20.4329 24.6125 21.1181 24.954C20.8826 24.9752 20.7493 24.9976 20.6163 24.9976C13.9845 24.9997 7.35262 25 0.720857 25C0.0061354 24.9999 -0.138678 24.8194 0.118178 24.1486C0.367996 23.4957 0.389805 22.6961 1.1988 22.3649C1.25095 22.3435 1.28915 22.2492 1.30311 22.1826C1.51139 21.1896 1.79686 20.2037 1.90094 19.1999C2.09203 17.3584 2.91487 15.7552 3.93652 14.3081C4.47112 13.5508 5.06561 12.8301 5.59236 12.0451C6.13677 11.2336 7.04869 10.6685 7.76445 9.96089C8.37613 9.35625 8.71491 8.57644 8.55383 7.74117C8.26731 6.25649 8.80145 4.97944 9.40863 3.70466C9.52714 3.45615 9.70368 3.18248 9.93111 3.04877C10.2626 2.85379 10.2705 2.63683 10.1655 2.34436C10.127 2.2373 10.0735 2.13548 10.036 2.0282C9.66906 0.977559 9.9475 0.360159 11.0058 0.0139322C11.1793 -0.0427852 11.4995 0.0826081 11.6407 0.228502C12.245 0.852963 12.2628 1.38335 11.8862 2.19926C11.8128 2.35825 11.9483 2.6899 12.0921 2.85083C12.3618 3.15275 12.6893 3.41675 13.033 3.63451C13.1431 3.70421 13.4895 3.63223 13.5399 3.53258C13.7457 3.12599 13.8405 2.66405 14.0534 2.26247C14.1672 2.04779 14.4183 1.88003 14.6431 1.75235C14.989 1.55601 15.3567 1.38893 15.7312 1.25169C16.3282 1.03291 16.9382 0.848976 17.5941 0.633382C17.9219 0.89328 18.3735 1.25989 18.8347 1.61443C19.2406 1.92661 19.6554 2.22773 20.0704 2.52829C20.2549 2.662 20.4348 2.85538 20.6418 2.89536C21.3031 3.0228 21.1827 3.52825 21.225 3.95853C21.2311 4.02173 21.1845 4.13437 21.1361 4.15123C20.7078 4.30031 20.273 4.54244 19.8412 4.54028C19.3916 4.53811 18.9918 4.456 18.6481 4.8356C18.5446 4.95005 18.3445 4.97932 18.1887 5.04754C18.1113 5.13387 18.034 5.22032 17.9567 5.30676" fill="#BAC4F6"/>
</svg>
