<svg width="1440" height="690" viewBox="0 0 1440 690" fill="none" xmlns="http://www.w3.org/2000/svg">
<path d="M716.99 241.01C716.546 239.83 716.212 238.611 715.99 237.37C712.5 215.85 696.05 94.8599 787.43 54.2499C832.43 34.2499 883.43 1.24993 1048.43 62.2499C1243.17 134.25 1370.43 12.2499 1400.43 12.2499C1430.43 12.2499 1498.43 -31.7501 1578.43 54.2499C1658.43 140.25 1598.43 244.25 1598.43 244.25C1598.43 244.25 1560.43 342.25 1572.43 392.25C1584.43 442.25 1598.43 482.25 1594.43 498.25C1590.43 514.25 1588.43 622.25 1522.43 646.25C1456.43 670.25 1478.43 666.25 1324.43 658.25C1170.43 650.25 1090.43 672.25 1058.43 684.25C1026.43 696.25 978.43 692.25 892.43 634.25C806.43 576.25 786.43 594.25 742.43 568.25C698.43 542.25 586.65 398.45 680.43 294.25C716.68 253.97 717.89 243.54 716.99 241.01Z" fill="#F8F8FF"/>
<path d="M839.58 193.6C856.193 193.6 869.66 180.133 869.66 163.52C869.66 146.907 856.193 133.44 839.58 133.44C822.967 133.44 809.5 146.907 809.5 163.52C809.5 180.133 822.967 193.6 839.58 193.6Z" fill="white"/>
<path d="M572.75 172.16C589.363 172.16 602.83 158.693 602.83 142.08C602.83 125.467 589.363 112 572.75 112C556.137 112 542.67 125.467 542.67 142.08C542.67 158.693 556.137 172.16 572.75 172.16Z" fill="#F8F8FF"/>
<path d="M605.42 162.42C616.731 162.42 625.9 153.251 625.9 141.94C625.9 130.629 616.731 121.46 605.42 121.46C594.109 121.46 584.94 130.629 584.94 141.94C584.94 153.251 594.109 162.42 605.42 162.42Z" fill="#F8F8FF"/>
<path d="M538.48 158C547.582 158 554.96 150.622 554.96 141.52C554.96 132.418 547.582 125.04 538.48 125.04C529.378 125.04 522 132.418 522 141.52C522 150.622 529.378 158 538.48 158Z" fill="#F8F8FF"/>
<path d="M14.75 172.16C31.3627 172.16 44.83 158.693 44.83 142.08C44.83 125.467 31.3627 112 14.75 112C-1.86274 112 -15.33 125.467 -15.33 142.08C-15.33 158.693 -1.86274 172.16 14.75 172.16Z" fill="#F8F8FF"/>
<path d="M47.42 162.42C58.7308 162.42 67.9 153.251 67.9 141.94C67.9 130.629 58.7308 121.46 47.42 121.46C36.1092 121.46 26.94 130.629 26.94 141.94C26.94 153.251 36.1092 162.42 47.42 162.42Z" fill="#F8F8FF"/>
<path d="M265 240C277.703 240 288 229.703 288 217C288 204.297 277.703 194 265 194C252.297 194 242 204.297 242 217C242 229.703 252.297 240 265 240Z" fill="#F8F8FF"/>
<path d="M290 233C298.837 233 306 225.837 306 217C306 208.163 298.837 201 290 201C281.163 201 274 208.163 274 217C274 225.837 281.163 233 290 233Z" fill="#F8F8FF"/>
<path d="M238.5 229C245.404 229 251 223.404 251 216.5C251 209.596 245.404 204 238.5 204C231.596 204 226 209.596 226 216.5C226 223.404 231.596 229 238.5 229Z" fill="#F8F8FF"/>
<path d="M872.25 183.86C883.561 183.86 892.73 174.691 892.73 163.38C892.73 152.069 883.561 142.9 872.25 142.9C860.939 142.9 851.77 152.069 851.77 163.38C851.77 174.691 860.939 183.86 872.25 183.86Z" fill="white"/>
<path d="M805.31 179.44C814.412 179.44 821.79 172.062 821.79 162.96C821.79 153.858 814.412 146.48 805.31 146.48C796.208 146.48 788.83 153.858 788.83 162.96C788.83 172.062 796.208 179.44 805.31 179.44Z" fill="white"/>
<path d="M1429.59 145.91C1446.2 145.91 1459.67 132.443 1459.67 115.83C1459.67 99.2173 1446.2 85.75 1429.59 85.75C1412.98 85.75 1399.51 99.2173 1399.51 115.83C1399.51 132.443 1412.98 145.91 1429.59 145.91Z" fill="white"/>
<path d="M1395.32 131.75C1404.42 131.75 1411.8 124.372 1411.8 115.27C1411.8 106.168 1404.42 98.79 1395.32 98.79C1386.22 98.79 1378.84 106.168 1378.84 115.27C1378.84 124.372 1386.22 131.75 1395.32 131.75Z" fill="white"/>
<path d="M1103.16 250.76C1119.77 250.76 1133.24 237.293 1133.24 220.68C1133.24 204.067 1119.77 190.6 1103.16 190.6C1086.55 190.6 1073.08 204.067 1073.08 220.68C1073.08 237.293 1086.55 250.76 1103.16 250.76Z" fill="white"/>
<path d="M1135.82 241.02C1147.13 241.02 1156.3 231.851 1156.3 220.54C1156.3 209.229 1147.13 200.06 1135.82 200.06C1124.51 200.06 1115.34 209.229 1115.34 220.54C1115.34 231.851 1124.51 241.02 1135.82 241.02Z" fill="white"/>
<path d="M1068.89 236.6C1077.99 236.6 1085.37 229.222 1085.37 220.12C1085.37 211.018 1077.99 203.64 1068.89 203.64C1059.79 203.64 1052.41 211.018 1052.41 220.12C1052.41 229.222 1059.79 236.6 1068.89 236.6Z" fill="white"/>
<path d="M667.43 486.25C667.43 486.25 686.43 458.25 688.43 454.25C690.43 450.25 689.43 434.25 689.43 434.25H682.43C682.43 434.25 688.43 417.25 705.43 417.25C722.43 417.25 727.43 425.25 729.43 429.25C731.43 433.25 730.43 435.25 730.43 435.25H724.43V451.25L753.43 499.25H765.43V577.25C765.43 577.25 694.43 540.25 667.43 486.25Z" fill="#BAC6F2"/>
<path d="M734.43 557.25H748.43V537.25C748.43 537.25 741.43 526.25 734.43 537.25V557.25Z" fill="white"/>
<path d="M738.78 516.58C743.657 516.58 747.61 512.627 747.61 507.75C747.61 502.873 743.657 498.92 738.78 498.92C733.903 498.92 729.95 502.873 729.95 507.75C729.95 512.627 733.903 516.58 738.78 516.58Z" fill="#E9EDFA"/>
<path d="M673.22 497.08C677.169 494.299 682.621 495.207 685.455 499.119C688.289 503.031 687.453 508.494 683.58 511.38" fill="#E9EDFA"/>
<path d="M707.21 476.54C712.087 476.54 716.04 472.587 716.04 467.71C716.04 462.833 712.087 458.88 707.21 458.88C702.333 458.88 698.38 462.833 698.38 467.71C698.38 472.587 702.333 476.54 707.21 476.54Z" fill="#E9EDFA"/>
<path d="M692.53 500.66C692.573 498.375 693.403 496.174 694.88 494.43C697.689 490.941 701.856 488.82 706.33 488.6C715.63 488.35 719.71 496.17 720.28 499.37C721.14 504.2 720.95 528.52 720.95 528.52L699.18 528.4L692.36 521.25L692.53 500.66Z" fill="white"/>
<path d="M763.15 468.37L765.43 577.25C765.43 577.25 806.65 592.63 824.03 596.3C841.41 599.97 881.85 623.04 881.85 623.04L881.17 468.88L763.17 468.09" fill="#E9EDFA"/>
<path d="M762.31 468.37L881.17 468.87L880.63 440.46H845.43C845.43 440.46 841.06 423.46 824.67 423.46C804.56 423.46 801.21 441.36 801.21 441.36L762.21 440.95L762.31 468.37Z" fill="#BAC6F2"/>
<rect x="774.88" y="484.52" width="21.02" height="22.8" fill="#BAC6F2"/>
<rect x="812.86" y="484.2" width="21.02" height="22.8" fill="#BAC6F2"/>
<rect x="850.35" y="484.53" width="21.02" height="22.8" fill="white"/>
<rect x="850.67" y="527.42" width="21.02" height="22.8" fill="#BAC6F2"/>
<rect x="850.97" y="577.33" width="21.02" height="22.8" fill="#BAC6F2"/>
<rect x="812.04" y="526.77" width="21.02" height="22.8" fill="#BAC6F2"/>
<rect x="812.04" y="526.77" width="21.02" height="22.8" fill="white"/>
<rect x="775.04" y="527.75" width="21.02" height="22.8" fill="#BAC6F2"/>
<path d="M775.51 580.71L775.35 574.05L795.76 574.47L795.82 587.88C795.82 587.88 780.71 582.86 775.51 580.71Z" fill="#BAC6F2"/>
<path d="M813.17 593.26L812.87 576.28L833.56 576.71L833.1 598.92L813.17 593.26Z" fill="#BAC6F2"/>
<path d="M823.55 456.94C829.934 456.94 835.11 451.764 835.11 445.38C835.11 438.996 829.934 433.82 823.55 433.82C817.166 433.82 811.99 438.996 811.99 445.38C811.99 451.764 817.166 456.94 823.55 456.94Z" fill="white"/>
<path d="M880.82 544.78L881.82 623.05C881.82 623.05 944.1 664.49 948.04 667.45C951.98 670.41 984.55 686.2 999.36 687.19L1002.03 529.25L993.28 528.91L950.49 475.77L934.64 475.01L880.83 544.74" fill="#BAC6F2"/>
<path d="M880.82 544.78L934.69 477.11L940.64 477.33L947.44 477.73L951.19 478.12L993.28 528.96L1002.03 529.29V526.26L993.61 525.92L953.29 476.64L953.55 457.58L934.02 456.57L933.27 476.08L881.49 501.01L880.82 544.78Z" fill="#E9EDFA"/>
<rect x="915.01" y="530.1" width="9.8" height="11.46" fill="white"/>
<rect x="958.22" y="530.19" width="9.8" height="11.46" fill="white"/>
<rect x="942.32" y="530.16" width="9.8" height="11.46" fill="white"/>
<rect x="929.31" y="530.07" width="9.8" height="11.46" fill="white"/>
<rect x="915.02" y="547.62" width="9.8" height="11.46" fill="white"/>
<rect x="958.23" y="547.71" width="9.8" height="11.46" fill="white"/>
<rect x="942.34" y="547.69" width="9.8" height="11.46" fill="white"/>
<rect x="929.33" y="547.6" width="9.8" height="11.46" fill="white"/>
<rect x="891.77" y="599.39" width="9.8" height="11.46" fill="white"/>
<rect x="904.5" y="586.21" width="9.8" height="11.46" fill="white"/>
<rect x="891.49" y="586.12" width="9.8" height="11.46" fill="white"/>
<rect x="904.63" y="599.5" width="9.8" height="11.46" fill="white"/>
<rect x="930.16" y="599.66" width="9.8" height="11.46" fill="white"/>
<rect x="942.88" y="586.48" width="9.8" height="11.46" fill="white"/>
<rect x="929.87" y="586.39" width="9.8" height="11.46" fill="white"/>
<rect x="943.01" y="599.77" width="9.8" height="11.46" fill="white"/>
<rect x="967.32" y="600.04" width="9.8" height="11.46" fill="white"/>
<rect x="980.04" y="586.85" width="9.8" height="11.46" fill="white"/>
<rect x="967.03" y="586.76" width="9.8" height="11.46" fill="white"/>
<rect x="980.17" y="600.15" width="9.8" height="11.46" fill="white"/>
<rect x="966.8" y="655.99" width="9.8" height="16.35" fill="white"/>
<rect x="979.53" y="642.8" width="9.8" height="11.46" fill="white"/>
<rect x="966.52" y="642.72" width="9.8" height="11.46" fill="white"/>
<rect x="940.96" y="642.48" width="9.8" height="11.46" fill="white"/>
<path d="M950.85 669.15L941.06 662.78L941.01 656.49H950.81L950.85 669.15Z" fill="white"/>
<rect x="927.95" y="642.39" width="9.8" height="11.46" fill="white"/>
<path d="M937.7 660.38L935.21 658.66L931.13 655.97L937.68 655.99L937.7 660.38Z" fill="white"/>
<rect x="979.66" y="656.1" width="9.8" height="16.28" fill="white"/>
<path d="M1052.75 424.96H1071.22L1070.94 415.95L1052.45 415.76L1052.75 424.96Z" fill="#BAC6F2"/>
<path d="M1001.2 509.49L999.43 687.18C999.43 687.18 1031.17 692.07 1059.72 684.86C1088.27 677.65 1121.33 669.86 1121.33 669.86L1122.43 511.18L1103.21 501.74L1072.03 446.54L1071.26 424.96H1052.76L1052.17 446.54L1019.32 500.77L1001.2 509.49Z" fill="#E9EDFA"/>
<rect x="1048.66" y="524.73" width="12.12" height="15.08" fill="#BAC6F2"/>
<rect x="1065.09" y="525" width="12.93" height="14.81" fill="#BAC6F2"/>
<rect x="1048.39" y="542.63" width="12.12" height="15.08" fill="#BAC6F2"/>
<rect x="1064.82" y="542.9" width="12.93" height="14.81" fill="#BAC6F2"/>
<rect x="1048.92" y="578.56" width="12.12" height="15.08" fill="#BAC6F2"/>
<rect x="1020.36" y="578.47" width="12.12" height="15.08" fill="#BAC6F2"/>
<rect x="1092.04" y="579.14" width="12.12" height="15.08" fill="#BAC6F2"/>
<rect x="1092.39" y="645.57" width="12.12" height="15.08" fill="#BAC6F2"/>
<rect x="1020.5" y="646" width="12.12" height="15.08" fill="#BAC6F2"/>
<rect x="1065.35" y="578.82" width="12.93" height="14.81" fill="#BAC6F2"/>
<rect x="1048.65" y="596.46" width="12.12" height="15.08" fill="#BAC6F2"/>
<rect x="1065.08" y="596.73" width="12.93" height="14.81" fill="#BAC6F2"/>
<rect x="1048.7" y="643.91" width="12.12" height="15.08" fill="#BAC6F2"/>
<rect x="1065.13" y="644.18" width="12.93" height="14.81" fill="#BAC6F2"/>
<rect x="1048.43" y="661.82" width="12.12" height="15.08" fill="#BAC6F2"/>
<rect x="1064.86" y="662.09" width="12.93" height="14.81" fill="#BAC6F2"/>
<path d="M1027.09 549.96C1031.77 549.96 1035.56 546.168 1035.56 541.49C1035.56 536.812 1031.77 533.02 1027.09 533.02C1022.41 533.02 1018.62 536.812 1018.62 541.49C1018.62 546.168 1022.41 549.96 1027.09 549.96Z" fill="#BAC6F2"/>
<path d="M1095.78 551.84C1100.46 551.84 1104.25 548.048 1104.25 543.37C1104.25 538.692 1100.46 534.9 1095.78 534.9C1091.1 534.9 1087.31 538.692 1087.31 543.37C1087.31 548.048 1091.1 551.84 1095.78 551.84Z" fill="#BAC6F2"/>
<path d="M1001.2 509.49H1019.67L1019.38 500.48L1000.89 500.29L1001.2 509.49Z" fill="#BAC6F2"/>
<path d="M1103.93 511.18H1122.4L1122.11 502.17L1103.63 501.98L1103.93 511.18Z" fill="#BAC6F2"/>
<path d="M1062.67 505.13C1070.71 505.13 1077.23 498.611 1077.23 490.57C1077.23 482.529 1070.71 476.01 1062.67 476.01C1054.63 476.01 1048.11 482.529 1048.11 490.57C1048.11 498.611 1054.63 505.13 1062.67 505.13Z" fill="#BAC6F2"/>
<path d="M1114.77 511.94L1115.84 588.62C1115.84 588.62 1118.64 670.77 1118.91 670.5C1125.48 663.71 1226.99 656.78 1238.72 656.5L1235.99 496.5L1227.24 496.16L1184.43 442.98L1168.58 442.22L1114.77 511.95" fill="#BAC6F2"/>
<path d="M1114.77 511.94L1168.64 444.27L1174.59 444.5L1181.39 444.9L1185.14 445.28L1227.23 496.12L1235.98 496.46V493.43L1227.56 493.09L1187.24 443.8L1187.5 424.74L1167.97 423.73L1167.22 443.25L1114.81 502.12L1114.77 511.94Z" fill="#E9EDFA"/>
<rect x="1148.95" y="497.26" width="9.8" height="11.46" fill="white"/>
<rect x="1192.17" y="497.36" width="9.8" height="11.46" fill="white"/>
<rect x="1176.27" y="497.33" width="9.8" height="11.46" fill="white"/>
<rect x="1163.26" y="497.24" width="9.8" height="11.46" fill="white"/>
<rect x="1148.97" y="514.78" width="9.8" height="11.46" fill="white"/>
<rect x="1192.18" y="514.88" width="9.8" height="11.46" fill="white"/>
<rect x="1176.29" y="514.85" width="9.8" height="11.46" fill="white"/>
<rect x="1163.28" y="514.76" width="9.8" height="11.46" fill="white"/>
<rect x="1125.95" y="574.78" width="9.8" height="11.46" fill="white"/>
<rect x="1138.67" y="561.6" width="9.8" height="11.46" fill="white"/>
<rect x="1125.66" y="561.51" width="9.8" height="11.46" fill="white"/>
<rect x="1138.8" y="574.89" width="9.8" height="11.46" fill="white"/>
<rect x="1164.33" y="575.05" width="9.8" height="11.46" fill="white"/>
<rect x="1177.06" y="561.87" width="9.8" height="11.46" fill="white"/>
<rect x="1164.05" y="561.78" width="9.8" height="11.46" fill="white"/>
<rect x="1177.19" y="575.16" width="9.8" height="11.46" fill="white"/>
<rect x="1201.49" y="575.43" width="9.8" height="11.46" fill="white"/>
<rect x="1214.22" y="562.24" width="9.8" height="11.46" fill="white"/>
<rect x="1201.21" y="562.15" width="9.8" height="11.46" fill="white"/>
<rect x="1214.35" y="575.54" width="9.8" height="11.46" fill="white"/>
<rect x="1126.22" y="625.04" width="9.8" height="11.46" fill="white"/>
<rect x="1138.94" y="611.85" width="9.8" height="11.46" fill="white"/>
<rect x="1125.93" y="611.76" width="9.8" height="11.46" fill="white"/>
<rect x="1139.07" y="625.14" width="9.8" height="11.46" fill="white"/>
<rect x="1164.6" y="625.31" width="9.8" height="11.46" fill="white"/>
<rect x="1177.33" y="612.12" width="9.8" height="11.46" fill="white"/>
<rect x="1164.32" y="612.03" width="9.8" height="11.46" fill="white"/>
<rect x="1177.46" y="625.41" width="9.8" height="11.46" fill="white"/>
<rect x="1201.76" y="625.68" width="9.8" height="11.46" fill="white"/>
<rect x="1214.49" y="612.5" width="9.8" height="11.46" fill="white"/>
<rect x="1201.48" y="612.41" width="9.8" height="11.46" fill="white"/>
<rect x="1214.62" y="625.79" width="9.8" height="11.46" fill="white"/>
<path d="M1247.43 475.42C1247.43 475.42 1273.29 434.25 1275.29 430.25C1277.29 426.25 1276.29 410.25 1276.29 410.25H1269.29C1269.29 410.25 1275.29 393.25 1292.29 393.25C1309.29 393.25 1314.29 401.25 1316.29 405.25C1318.29 409.25 1317.29 411.25 1317.29 411.25H1311.29V427.25L1340.29 475.25H1352.29L1356.23 660.16C1356.23 660.16 1242.16 654.81 1239.75 656.42C1239 656.92 1239.06 651.69 1238.94 650.78C1238.44 646.88 1234.17 505.43 1236.32 475.59C1236.32 475.62 1247.51 475.41 1247.43 475.42Z" fill="#E9EDFA"/>
<path d="M1320.81 533.73H1334.81V513.73C1334.81 513.73 1327.81 502.73 1320.81 513.73V533.73Z" fill="white"/>
<path d="M1253.58 535.34H1267.58V515.34C1267.58 515.34 1260.58 504.34 1253.58 515.34V535.34Z" fill="white"/>
<path d="M1253.58 586.97H1267.58V566.97C1267.58 566.97 1260.58 555.97 1253.58 566.97V586.97Z" fill="white"/>
<path d="M1287.01 587.57H1301.01V567.57C1301.01 567.57 1294.01 556.57 1287.01 567.57V587.57Z" fill="white"/>
<path d="M1320.43 588.17H1334.43V568.17C1334.43 568.17 1327.43 557.17 1320.43 568.17V588.17Z" fill="white"/>
<path d="M1254.43 636.37H1268.43V616.37C1268.43 616.37 1261.43 605.37 1254.43 616.37V636.37Z" fill="white"/>
<path d="M1287.87 636.97H1301.87V616.97C1301.87 616.97 1294.87 605.97 1287.87 616.97V636.97Z" fill="white"/>
<path d="M1321.31 637.58H1335.31V617.58C1335.31 617.58 1328.31 606.58 1321.31 617.58V637.58Z" fill="white"/>
<path d="M1325.16 493.05C1330.04 493.05 1333.99 489.097 1333.99 484.22C1333.99 479.343 1330.04 475.39 1325.16 475.39C1320.28 475.39 1316.33 479.343 1316.33 484.22C1316.33 489.097 1320.28 493.05 1325.16 493.05Z" fill="#E9EDFA"/>
<path d="M1262.04 491.71C1266.92 491.71 1270.87 487.757 1270.87 482.88C1270.87 478.003 1266.92 474.05 1262.04 474.05C1257.16 474.05 1253.21 478.003 1253.21 482.88C1253.21 487.757 1257.16 491.71 1262.04 491.71Z" fill="#E9EDFA"/>
<path d="M1294.26 535.28C1299.14 535.28 1303.09 531.327 1303.09 526.45C1303.09 521.573 1299.14 517.62 1294.26 517.62C1289.38 517.62 1285.43 521.573 1285.43 526.45C1285.43 531.327 1289.38 535.28 1294.26 535.28Z" fill="#E9EDFA"/>
<path d="M1293.6 453.02C1298.48 453.02 1302.43 449.067 1302.43 444.19C1302.43 439.313 1298.48 435.36 1293.6 435.36C1288.72 435.36 1284.77 439.313 1284.77 444.19C1284.77 449.067 1288.72 453.02 1293.6 453.02Z" fill="#E9EDFA"/>
<path d="M1278.92 477.14C1278.96 474.855 1279.79 472.654 1281.27 470.91C1284.08 467.421 1288.25 465.3 1292.72 465.08C1302.02 464.83 1306.1 472.65 1306.67 475.85C1307.53 480.68 1307.34 505 1307.34 505H1278.6L1278.75 497.77L1278.92 477.14Z" fill="white"/>
<path d="M1352.79 510.16L1355.79 660.35C1355.79 660.35 1388.71 660.69 1408.86 663.2C1426.49 665.4 1468.86 663.37 1468.86 663.37L1470.86 510.67L1352.86 509.88" fill="#BAC6F2"/>
<path d="M1351.95 510.16L1470.81 510.66L1470.27 482.25H1435.06C1435.06 482.25 1430.69 465.25 1414.3 465.25C1394.19 465.25 1390.84 483.15 1390.84 483.15L1351.84 482.74L1351.95 510.16Z" fill="#BAC6F2"/>
<rect x="1364.52" y="526.31" width="21.02" height="22.8" fill="white"/>
<rect x="1402.5" y="525.98" width="21.02" height="22.8" fill="white"/>
<rect x="1439.99" y="526.31" width="21.02" height="22.8" fill="white"/>
<rect x="1402.53" y="618.2" width="21.02" height="22.8" fill="white"/>
<rect x="1364.53" y="617.73" width="21.02" height="22.8" fill="white"/>
<rect x="1401.68" y="568.55" width="21.02" height="22.8" fill="white"/>
<rect x="1401.68" y="568.55" width="21.02" height="22.8" fill="white"/>
<rect x="1364.68" y="569.53" width="21.02" height="22.8" fill="white"/>
<path d="M1413.19 498.72C1419.57 498.72 1424.75 493.544 1424.75 487.16C1424.75 480.776 1419.57 475.6 1413.19 475.6C1406.81 475.6 1401.63 480.776 1401.63 487.16C1401.63 493.544 1406.81 498.72 1413.19 498.72Z" fill="white"/>
<mask id="path-149-inside-1" fill="white">
<path fill-rule="evenodd" clip-rule="evenodd" d="M1138 469C1135.79 469 1134 470.791 1134 473V494.163C1134 496.372 1135.79 498.163 1138 498.163H1172.47L1176.07 501.805C1177.63 503.389 1180.19 503.389 1181.76 501.805L1185.36 498.163H1220C1222.21 498.163 1224 496.372 1224 494.163V473C1224 470.791 1222.21 469 1220 469H1138Z"/>
</mask>
<path fill-rule="evenodd" clip-rule="evenodd" d="M1138 469C1135.79 469 1134 470.791 1134 473V494.163C1134 496.372 1135.79 498.163 1138 498.163H1172.47L1176.07 501.805C1177.63 503.389 1180.19 503.389 1181.76 501.805L1185.36 498.163H1220C1222.21 498.163 1224 496.372 1224 494.163V473C1224 470.791 1222.21 469 1220 469H1138Z" fill="#E94C60"/>
<path d="M1172.47 498.163L1173.89 496.757L1173.3 496.163H1172.47V498.163ZM1176.07 501.805L1177.49 500.399V500.399L1176.07 501.805ZM1181.76 501.805L1180.34 500.399V500.399L1181.76 501.805ZM1185.36 498.163V496.163H1184.52L1183.94 496.757L1185.36 498.163ZM1136 473C1136 471.895 1136.9 471 1138 471V467C1134.69 467 1132 469.686 1132 473H1136ZM1136 494.163V473H1132V494.163H1136ZM1138 496.163C1136.9 496.163 1136 495.267 1136 494.163H1132C1132 497.476 1134.69 500.163 1138 500.163V496.163ZM1172.47 496.163H1138V500.163H1172.47V496.163ZM1177.49 500.399L1173.89 496.757L1171.05 499.569L1174.65 503.211L1177.49 500.399ZM1180.34 500.399C1179.55 501.191 1178.27 501.191 1177.49 500.399L1174.65 503.211C1176.99 505.587 1180.83 505.587 1183.18 503.211L1180.34 500.399ZM1183.94 496.757L1180.34 500.399L1183.18 503.211L1186.78 499.569L1183.94 496.757ZM1220 496.163H1185.36V500.163H1220V496.163ZM1222 494.163C1222 495.267 1221.1 496.163 1220 496.163V500.163C1223.31 500.163 1226 497.476 1226 494.163H1222ZM1222 473V494.163H1226V473H1222ZM1220 471C1221.1 471 1222 471.895 1222 473H1226C1226 469.686 1223.31 467 1220 467V471ZM1138 471H1220V467H1138V471Z" fill="white" mask="url(#path-149-inside-1)"/>
<mask id="path-151-inside-2" fill="white">
<path fill-rule="evenodd" clip-rule="evenodd" d="M660 480C657.791 480 656 481.791 656 484V505.163C656 507.372 657.791 509.163 660 509.163H694.468L698.069 512.805C699.634 514.389 702.192 514.389 703.758 512.805L707.359 509.163H742C744.209 509.163 746 507.372 746 505.163V484C746 481.791 744.209 480 742 480H660Z"/>
</mask>
<path fill-rule="evenodd" clip-rule="evenodd" d="M660 480C657.791 480 656 481.791 656 484V505.163C656 507.372 657.791 509.163 660 509.163H694.468L698.069 512.805C699.634 514.389 702.192 514.389 703.758 512.805L707.359 509.163H742C744.209 509.163 746 507.372 746 505.163V484C746 481.791 744.209 480 742 480H660Z" fill="#E94C60"/>
<path d="M694.468 509.163L695.89 507.757L695.303 507.163H694.468V509.163ZM698.069 512.805L699.491 511.399V511.399L698.069 512.805ZM703.758 512.805L702.336 511.399V511.399L703.758 512.805ZM707.359 509.163V507.163H706.524L705.936 507.757L707.359 509.163ZM658 484C658 482.895 658.895 482 660 482V478C656.686 478 654 480.686 654 484H658ZM658 505.163V484H654V505.163H658ZM660 507.163C658.895 507.163 658 506.267 658 505.163H654C654 508.476 656.686 511.163 660 511.163V507.163ZM694.468 507.163H660V511.163H694.468V507.163ZM699.491 511.399L695.89 507.757L693.045 510.569L696.646 514.211L699.491 511.399ZM702.336 511.399C701.553 512.191 700.274 512.191 699.491 511.399L696.646 514.211C698.995 516.587 702.832 516.587 705.18 514.211L702.336 511.399ZM705.936 507.757L702.336 511.399L705.18 514.211L708.781 510.569L705.936 507.757ZM742 507.163H707.359V511.163H742V507.163ZM744 505.163C744 506.267 743.105 507.163 742 507.163V511.163C745.314 511.163 748 508.476 748 505.163H744ZM744 484V505.163H748V484H744ZM742 482C743.105 482 744 482.895 744 484H748C748 480.686 745.314 478 742 478V482ZM660 482H742V478H660V482Z" fill="white" mask="url(#path-151-inside-2)"/>
<mask id="path-153-inside-3" fill="white">
<path fill-rule="evenodd" clip-rule="evenodd" d="M1336 548C1333.79 548 1332 549.791 1332 552V573.163C1332 575.372 1333.79 577.163 1336 577.163H1370.47L1374.07 580.805C1375.63 582.389 1378.19 582.389 1379.76 580.805L1383.36 577.163H1418C1420.21 577.163 1422 575.372 1422 573.163V552C1422 549.791 1420.21 548 1418 548H1336Z"/>
</mask>
<path fill-rule="evenodd" clip-rule="evenodd" d="M1336 548C1333.79 548 1332 549.791 1332 552V573.163C1332 575.372 1333.79 577.163 1336 577.163H1370.47L1374.07 580.805C1375.63 582.389 1378.19 582.389 1379.76 580.805L1383.36 577.163H1418C1420.21 577.163 1422 575.372 1422 573.163V552C1422 549.791 1420.21 548 1418 548H1336Z" fill="#E94C60"/>
<path d="M1370.47 577.163L1371.89 575.757L1371.3 575.163H1370.47V577.163ZM1374.07 580.805L1375.49 579.399V579.399L1374.07 580.805ZM1379.76 580.805L1378.34 579.399V579.399L1379.76 580.805ZM1383.36 577.163V575.163H1382.52L1381.94 575.757L1383.36 577.163ZM1334 552C1334 550.895 1334.9 550 1336 550V546C1332.69 546 1330 548.686 1330 552H1334ZM1334 573.163V552H1330V573.163H1334ZM1336 575.163C1334.9 575.163 1334 574.267 1334 573.163H1330C1330 576.476 1332.69 579.163 1336 579.163V575.163ZM1370.47 575.163H1336V579.163H1370.47V575.163ZM1375.49 579.399L1371.89 575.757L1369.05 578.569L1372.65 582.211L1375.49 579.399ZM1378.34 579.399C1377.55 580.191 1376.27 580.191 1375.49 579.399L1372.65 582.211C1374.99 584.587 1378.83 584.587 1381.18 582.211L1378.34 579.399ZM1381.94 575.757L1378.34 579.399L1381.18 582.211L1384.78 578.569L1381.94 575.757ZM1418 575.163H1383.36V579.163H1418V575.163ZM1420 573.163C1420 574.267 1419.1 575.163 1418 575.163V579.163C1421.31 579.163 1424 576.476 1424 573.163H1420ZM1420 552V573.163H1424V552H1420ZM1418 550C1419.1 550 1420 550.895 1420 552H1424C1424 548.686 1421.31 546 1418 546V550ZM1336 550H1418V546H1336V550Z" fill="white" mask="url(#path-153-inside-3)"/>
<mask id="path-155-inside-4" fill="white">
<path fill-rule="evenodd" clip-rule="evenodd" d="M1200 240C1197.79 240 1196 241.791 1196 244V265.163C1196 267.372 1197.79 269.163 1200 269.163H1234.47L1238.07 272.805C1239.63 274.389 1242.19 274.389 1243.76 272.805L1247.36 269.163H1282C1284.21 269.163 1286 267.372 1286 265.163V244C1286 241.791 1284.21 240 1282 240H1200Z"/>
</mask>
<path fill-rule="evenodd" clip-rule="evenodd" d="M1200 240C1197.79 240 1196 241.791 1196 244V265.163C1196 267.372 1197.79 269.163 1200 269.163H1234.47L1238.07 272.805C1239.63 274.389 1242.19 274.389 1243.76 272.805L1247.36 269.163H1282C1284.21 269.163 1286 267.372 1286 265.163V244C1286 241.791 1284.21 240 1282 240H1200Z" fill="#E94C60"/>
<path d="M1234.47 269.163L1235.89 267.757L1235.3 267.163H1234.47V269.163ZM1238.07 272.805L1239.49 271.399V271.399L1238.07 272.805ZM1243.76 272.805L1242.34 271.399V271.399L1243.76 272.805ZM1247.36 269.163V267.163H1246.52L1245.94 267.757L1247.36 269.163ZM1198 244C1198 242.895 1198.9 242 1200 242V238C1196.69 238 1194 240.686 1194 244H1198ZM1198 265.163V244H1194V265.163H1198ZM1200 267.163C1198.9 267.163 1198 266.267 1198 265.163H1194C1194 268.476 1196.69 271.163 1200 271.163V267.163ZM1234.47 267.163H1200V271.163H1234.47V267.163ZM1239.49 271.399L1235.89 267.757L1233.05 270.569L1236.65 274.211L1239.49 271.399ZM1242.34 271.399C1241.55 272.191 1240.27 272.191 1239.49 271.399L1236.65 274.211C1238.99 276.587 1242.83 276.587 1245.18 274.211L1242.34 271.399ZM1245.94 267.757L1242.34 271.399L1245.18 274.211L1248.78 270.569L1245.94 267.757ZM1282 267.163H1247.36V271.163H1282V267.163ZM1284 265.163C1284 266.267 1283.1 267.163 1282 267.163V271.163C1285.31 271.163 1288 268.476 1288 265.163H1284ZM1284 244V265.163H1288V244H1284ZM1282 242C1283.1 242 1284 242.895 1284 244H1288C1288 240.686 1285.31 238 1282 238V242ZM1200 242H1282V238H1200V242Z" fill="white" mask="url(#path-155-inside-4)"/>
<mask id="path-157-inside-5" fill="white">
<path fill-rule="evenodd" clip-rule="evenodd" d="M786 401C783.791 401 782 402.791 782 405V426.163C782 428.372 783.791 430.163 786 430.163H820.468L824.069 433.805C825.634 435.389 828.192 435.389 829.758 433.805L833.359 430.163H868C870.209 430.163 872 428.372 872 426.163V405C872 402.791 870.209 401 868 401H786Z"/>
</mask>
<path fill-rule="evenodd" clip-rule="evenodd" d="M786 401C783.791 401 782 402.791 782 405V426.163C782 428.372 783.791 430.163 786 430.163H820.468L824.069 433.805C825.634 435.389 828.192 435.389 829.758 433.805L833.359 430.163H868C870.209 430.163 872 428.372 872 426.163V405C872 402.791 870.209 401 868 401H786Z" fill="#E94C60"/>
<path d="M820.468 430.163L821.89 428.757L821.303 428.163H820.468V430.163ZM824.069 433.805L825.491 432.399L825.491 432.399L824.069 433.805ZM829.758 433.805L828.336 432.399L828.336 432.399L829.758 433.805ZM833.359 430.163V428.163H832.524L831.936 428.757L833.359 430.163ZM784 405C784 403.895 784.895 403 786 403V399C782.686 399 780 401.686 780 405H784ZM784 426.163V405H780V426.163H784ZM786 428.163C784.895 428.163 784 427.267 784 426.163H780C780 429.476 782.686 432.163 786 432.163V428.163ZM820.468 428.163H786V432.163H820.468V428.163ZM825.491 432.399L821.89 428.757L819.045 431.569L822.646 435.211L825.491 432.399ZM828.336 432.399C827.553 433.191 826.274 433.191 825.491 432.399L822.646 435.211C824.995 437.587 828.832 437.587 831.18 435.211L828.336 432.399ZM831.936 428.757L828.336 432.399L831.18 435.211L834.781 431.569L831.936 428.757ZM868 428.163H833.359V432.163H868V428.163ZM870 426.163C870 427.267 869.105 428.163 868 428.163V432.163C871.314 432.163 874 429.476 874 426.163H870ZM870 405V426.163H874V405H870ZM868 403C869.105 403 870 403.895 870 405H874C874 401.686 871.314 399 868 399V403ZM786 403H868V399H786V403Z" fill="white" mask="url(#path-157-inside-5)"/>
<path d="M674.84 497.089H673.358V499H671.304V497.089H666.403V495.672L670.693 489.9H672.903L668.925 495.373H671.369V493.67H673.358V495.373H674.84V497.089ZM682.927 489.744C684.201 489.744 685.198 490.134 685.917 490.914C686.637 491.685 686.996 492.799 686.996 494.255C686.996 495.286 686.801 496.17 686.411 496.907C686.03 497.644 685.488 498.203 684.786 498.584C684.084 498.965 683.274 499.156 682.355 499.156C681.87 499.156 681.406 499.104 680.964 499C680.522 498.887 680.145 498.731 679.833 498.532L680.613 496.985C681.055 497.288 681.623 497.44 682.316 497.44C683.088 497.44 683.699 497.215 684.149 496.764C684.6 496.305 684.843 495.646 684.877 494.788C684.331 495.334 683.577 495.607 682.615 495.607C682.035 495.607 681.506 495.49 681.029 495.256C680.553 495.022 680.176 494.693 679.898 494.268C679.621 493.835 679.482 493.336 679.482 492.773C679.482 492.166 679.634 491.633 679.937 491.174C680.241 490.715 680.652 490.364 681.172 490.121C681.701 489.87 682.286 489.744 682.927 489.744ZM683.083 494.034C683.543 494.034 683.915 493.908 684.201 493.657C684.496 493.397 684.643 493.068 684.643 492.669C684.643 492.27 684.5 491.945 684.214 491.694C683.937 491.443 683.551 491.317 683.057 491.317C682.607 491.317 682.238 491.438 681.952 491.681C681.675 491.924 681.536 492.253 681.536 492.669C681.536 493.085 681.675 493.419 681.952 493.67C682.238 493.913 682.615 494.034 683.083 494.034ZM691.416 493.319C692.698 493.319 693.643 493.575 694.25 494.086C694.865 494.597 695.173 495.282 695.173 496.14C695.173 496.695 695.034 497.202 694.757 497.661C694.479 498.112 694.055 498.476 693.483 498.753C692.919 499.022 692.222 499.156 691.39 499.156C690.748 499.156 690.116 499.074 689.492 498.909C688.876 498.736 688.352 498.493 687.919 498.181L688.751 496.569C689.097 496.829 689.496 497.033 689.947 497.18C690.397 497.319 690.861 497.388 691.338 497.388C691.866 497.388 692.282 497.284 692.586 497.076C692.889 496.868 693.041 496.578 693.041 496.205C693.041 495.815 692.88 495.52 692.56 495.321C692.248 495.122 691.702 495.022 690.922 495.022H688.595L689.063 489.9H694.614V491.59H690.818L690.675 493.319H691.416ZM700.216 499.156C699.462 499.156 698.79 498.97 698.201 498.597C697.612 498.224 697.148 497.687 696.81 496.985C696.481 496.274 696.316 495.429 696.316 494.45C696.316 493.471 696.481 492.63 696.81 491.928C697.148 491.217 697.612 490.676 698.201 490.303C698.79 489.93 699.462 489.744 700.216 489.744C700.97 489.744 701.642 489.93 702.231 490.303C702.82 490.676 703.28 491.217 703.609 491.928C703.947 492.63 704.116 493.471 704.116 494.45C704.116 495.429 703.947 496.274 703.609 496.985C703.28 497.687 702.82 498.224 702.231 498.597C701.642 498.97 700.97 499.156 700.216 499.156ZM700.216 497.375C700.771 497.375 701.204 497.137 701.516 496.66C701.837 496.183 701.997 495.447 701.997 494.45C701.997 493.453 701.837 492.717 701.516 492.24C701.204 491.763 700.771 491.525 700.216 491.525C699.67 491.525 699.237 491.763 698.916 492.24C698.604 492.717 698.448 493.453 698.448 494.45C698.448 495.447 698.604 496.183 698.916 496.66C699.237 497.137 699.67 497.375 700.216 497.375ZM713.299 499.156C712.545 499.156 711.873 498.97 711.284 498.597C710.694 498.224 710.231 497.687 709.893 496.985C709.563 496.274 709.399 495.429 709.399 494.45C709.399 493.471 709.563 492.63 709.893 491.928C710.231 491.217 710.694 490.676 711.284 490.303C711.873 489.93 712.545 489.744 713.299 489.744C714.053 489.744 714.724 489.93 715.314 490.303C715.903 490.676 716.362 491.217 716.692 491.928C717.03 492.63 717.199 493.471 717.199 494.45C717.199 495.429 717.03 496.274 716.692 496.985C716.362 497.687 715.903 498.224 715.314 498.597C714.724 498.97 714.053 499.156 713.299 499.156ZM713.299 497.375C713.853 497.375 714.287 497.137 714.599 496.66C714.919 496.183 715.08 495.447 715.08 494.45C715.08 493.453 714.919 492.717 714.599 492.24C714.287 491.763 713.853 491.525 713.299 491.525C712.753 491.525 712.319 491.763 711.999 492.24C711.687 492.717 711.531 493.453 711.531 494.45C711.531 495.447 711.687 496.183 711.999 496.66C712.319 497.137 712.753 497.375 713.299 497.375ZM722.411 499.156C721.657 499.156 720.985 498.97 720.396 498.597C719.806 498.224 719.343 497.687 719.005 496.985C718.675 496.274 718.511 495.429 718.511 494.45C718.511 493.471 718.675 492.63 719.005 491.928C719.343 491.217 719.806 490.676 720.396 490.303C720.985 489.93 721.657 489.744 722.411 489.744C723.165 489.744 723.836 489.93 724.426 490.303C725.015 490.676 725.474 491.217 725.804 491.928C726.142 492.63 726.311 493.471 726.311 494.45C726.311 495.429 726.142 496.274 725.804 496.985C725.474 497.687 725.015 498.224 724.426 498.597C723.836 498.97 723.165 499.156 722.411 499.156ZM722.411 497.375C722.965 497.375 723.399 497.137 723.711 496.66C724.031 496.183 724.192 495.447 724.192 494.45C724.192 493.453 724.031 492.717 723.711 492.24C723.399 491.763 722.965 491.525 722.411 491.525C721.865 491.525 721.431 491.763 721.111 492.24C720.799 492.717 720.643 493.453 720.643 494.45C720.643 495.447 720.799 496.183 721.111 496.66C721.431 497.137 721.865 497.375 722.411 497.375ZM731.523 499.156C730.769 499.156 730.097 498.97 729.508 498.597C728.918 498.224 728.455 497.687 728.117 496.985C727.787 496.274 727.623 495.429 727.623 494.45C727.623 493.471 727.787 492.63 728.117 491.928C728.455 491.217 728.918 490.676 729.508 490.303C730.097 489.93 730.769 489.744 731.523 489.744C732.277 489.744 732.948 489.93 733.538 490.303C734.127 490.676 734.586 491.217 734.916 491.928C735.254 492.63 735.423 493.471 735.423 494.45C735.423 495.429 735.254 496.274 734.916 496.985C734.586 497.687 734.127 498.224 733.538 498.597C732.948 498.97 732.277 499.156 731.523 499.156ZM731.523 497.375C732.077 497.375 732.511 497.137 732.823 496.66C733.143 496.183 733.304 495.447 733.304 494.45C733.304 493.453 733.143 492.717 732.823 492.24C732.511 491.763 732.077 491.525 731.523 491.525C730.977 491.525 730.543 491.763 730.223 492.24C729.911 492.717 729.755 493.453 729.755 494.45C729.755 495.447 729.911 496.183 730.223 496.66C730.543 497.137 730.977 497.375 731.523 497.375Z" fill="white"/>
<path d="M1346.76 561.605C1347.56 561.735 1348.17 562.034 1348.59 562.502C1349.02 562.961 1349.23 563.533 1349.23 564.218C1349.23 564.747 1349.09 565.236 1348.81 565.687C1348.53 566.129 1348.11 566.484 1347.54 566.753C1346.97 567.022 1346.28 567.156 1345.46 567.156C1344.82 567.156 1344.18 567.074 1343.56 566.909C1342.94 566.736 1342.42 566.493 1341.99 566.181L1342.81 564.569C1343.15 564.829 1343.55 565.033 1344 565.18C1344.46 565.319 1344.93 565.388 1345.41 565.388C1345.93 565.388 1346.35 565.288 1346.65 565.089C1346.96 564.881 1347.11 564.591 1347.11 564.218C1347.11 563.473 1346.54 563.1 1345.41 563.1H1344.44V561.709L1346.32 559.59H1342.44V557.9H1348.81V559.265L1346.76 561.605ZM1362.79 565.089H1361.31V567H1359.26V565.089H1354.36V563.672L1358.65 557.9H1360.86L1356.88 563.373H1359.32V561.67H1361.31V563.373H1362.79V565.089ZM1367.61 567.156C1366.86 567.156 1366.19 566.97 1365.6 566.597C1365.01 566.224 1364.54 565.687 1364.21 564.985C1363.88 564.274 1363.71 563.429 1363.71 562.45C1363.71 561.471 1363.88 560.63 1364.21 559.928C1364.54 559.217 1365.01 558.676 1365.6 558.303C1366.19 557.93 1366.86 557.744 1367.61 557.744C1368.37 557.744 1369.04 557.93 1369.63 558.303C1370.22 558.676 1370.68 559.217 1371 559.928C1371.34 560.63 1371.51 561.471 1371.51 562.45C1371.51 563.429 1371.34 564.274 1371 564.985C1370.68 565.687 1370.22 566.224 1369.63 566.597C1369.04 566.97 1368.37 567.156 1367.61 567.156ZM1367.61 565.375C1368.17 565.375 1368.6 565.137 1368.91 564.66C1369.23 564.183 1369.39 563.447 1369.39 562.45C1369.39 561.453 1369.23 560.717 1368.91 560.24C1368.6 559.763 1368.17 559.525 1367.61 559.525C1367.07 559.525 1366.63 559.763 1366.31 560.24C1366 560.717 1365.84 561.453 1365.84 562.45C1365.84 563.447 1366 564.183 1366.31 564.66C1366.63 565.137 1367.07 565.375 1367.61 565.375ZM1376.72 567.156C1375.97 567.156 1375.3 566.97 1374.71 566.597C1374.12 566.224 1373.66 565.687 1373.32 564.985C1372.99 564.274 1372.82 563.429 1372.82 562.45C1372.82 561.471 1372.99 560.63 1373.32 559.928C1373.66 559.217 1374.12 558.676 1374.71 558.303C1375.3 557.93 1375.97 557.744 1376.72 557.744C1377.48 557.744 1378.15 557.93 1378.74 558.303C1379.33 558.676 1379.79 559.217 1380.12 559.928C1380.45 560.63 1380.62 561.471 1380.62 562.45C1380.62 563.429 1380.45 564.274 1380.12 564.985C1379.79 565.687 1379.33 566.224 1378.74 566.597C1378.15 566.97 1377.48 567.156 1376.72 567.156ZM1376.72 565.375C1377.28 565.375 1377.71 565.137 1378.02 564.66C1378.34 564.183 1378.5 563.447 1378.5 562.45C1378.5 561.453 1378.34 560.717 1378.02 560.24C1377.71 559.763 1377.28 559.525 1376.72 559.525C1376.18 559.525 1375.74 559.763 1375.42 560.24C1375.11 560.717 1374.96 561.453 1374.96 562.45C1374.96 563.447 1375.11 564.183 1375.42 564.66C1375.74 565.137 1376.18 565.375 1376.72 565.375ZM1389.81 567.156C1389.05 567.156 1388.38 566.97 1387.79 566.597C1387.2 566.224 1386.74 565.687 1386.4 564.985C1386.07 564.274 1385.91 563.429 1385.91 562.45C1385.91 561.471 1386.07 560.63 1386.4 559.928C1386.74 559.217 1387.2 558.676 1387.79 558.303C1388.38 557.93 1389.05 557.744 1389.81 557.744C1390.56 557.744 1391.23 557.93 1391.82 558.303C1392.41 558.676 1392.87 559.217 1393.2 559.928C1393.54 560.63 1393.71 561.471 1393.71 562.45C1393.71 563.429 1393.54 564.274 1393.2 564.985C1392.87 565.687 1392.41 566.224 1391.82 566.597C1391.23 566.97 1390.56 567.156 1389.81 567.156ZM1389.81 565.375C1390.36 565.375 1390.79 565.137 1391.11 564.66C1391.43 564.183 1391.59 563.447 1391.59 562.45C1391.59 561.453 1391.43 560.717 1391.11 560.24C1390.79 559.763 1390.36 559.525 1389.81 559.525C1389.26 559.525 1388.83 559.763 1388.51 560.24C1388.19 560.717 1388.04 561.453 1388.04 562.45C1388.04 563.447 1388.19 564.183 1388.51 564.66C1388.83 565.137 1389.26 565.375 1389.81 565.375ZM1398.92 567.156C1398.16 567.156 1397.49 566.97 1396.9 566.597C1396.31 566.224 1395.85 565.687 1395.51 564.985C1395.18 564.274 1395.02 563.429 1395.02 562.45C1395.02 561.471 1395.18 560.63 1395.51 559.928C1395.85 559.217 1396.31 558.676 1396.9 558.303C1397.49 557.93 1398.16 557.744 1398.92 557.744C1399.67 557.744 1400.34 557.93 1400.93 558.303C1401.52 558.676 1401.98 559.217 1402.31 559.928C1402.65 560.63 1402.82 561.471 1402.82 562.45C1402.82 563.429 1402.65 564.274 1402.31 564.985C1401.98 565.687 1401.52 566.224 1400.93 566.597C1400.34 566.97 1399.67 567.156 1398.92 567.156ZM1398.92 565.375C1399.47 565.375 1399.91 565.137 1400.22 564.66C1400.54 564.183 1400.7 563.447 1400.7 562.45C1400.7 561.453 1400.54 560.717 1400.22 560.24C1399.91 559.763 1399.47 559.525 1398.92 559.525C1398.37 559.525 1397.94 559.763 1397.62 560.24C1397.31 560.717 1397.15 561.453 1397.15 562.45C1397.15 563.447 1397.31 564.183 1397.62 564.66C1397.94 565.137 1398.37 565.375 1398.92 565.375ZM1408.03 567.156C1407.28 567.156 1406.6 566.97 1406.02 566.597C1405.43 566.224 1404.96 565.687 1404.62 564.985C1404.3 564.274 1404.13 563.429 1404.13 562.45C1404.13 561.471 1404.3 560.63 1404.62 559.928C1404.96 559.217 1405.43 558.676 1406.02 558.303C1406.6 557.93 1407.28 557.744 1408.03 557.744C1408.78 557.744 1409.46 557.93 1410.05 558.303C1410.63 558.676 1411.09 559.217 1411.42 559.928C1411.76 560.63 1411.93 561.471 1411.93 562.45C1411.93 563.429 1411.76 564.274 1411.42 564.985C1411.09 565.687 1410.63 566.224 1410.05 566.597C1409.46 566.97 1408.78 567.156 1408.03 567.156ZM1408.03 565.375C1408.59 565.375 1409.02 565.137 1409.33 564.66C1409.65 564.183 1409.81 563.447 1409.81 562.45C1409.81 561.453 1409.65 560.717 1409.33 560.24C1409.02 559.763 1408.59 559.525 1408.03 559.525C1407.48 559.525 1407.05 559.763 1406.73 560.24C1406.42 560.717 1406.26 561.453 1406.26 562.45C1406.26 563.447 1406.42 564.183 1406.73 564.66C1407.05 565.137 1407.48 565.375 1408.03 565.375Z" fill="white"/>
<path d="M796.017 410.9V420H793.911V412.59H792.091V410.9H796.017ZM805.055 410.744C806.329 410.744 807.326 411.134 808.045 411.914C808.765 412.685 809.124 413.799 809.124 415.255C809.124 416.286 808.929 417.17 808.539 417.907C808.158 418.644 807.616 419.203 806.914 419.584C806.212 419.965 805.402 420.156 804.483 420.156C803.998 420.156 803.534 420.104 803.092 420C802.65 419.887 802.273 419.731 801.961 419.532L802.741 417.985C803.183 418.288 803.751 418.44 804.444 418.44C805.216 418.44 805.827 418.215 806.277 417.764C806.728 417.305 806.971 416.646 807.005 415.788C806.459 416.334 805.705 416.607 804.743 416.607C804.163 416.607 803.634 416.49 803.157 416.256C802.681 416.022 802.304 415.693 802.026 415.268C801.749 414.835 801.61 414.336 801.61 413.773C801.61 413.166 801.762 412.633 802.065 412.174C802.369 411.715 802.78 411.364 803.3 411.121C803.829 410.87 804.414 410.744 805.055 410.744ZM805.211 415.034C805.671 415.034 806.043 414.908 806.329 414.657C806.624 414.397 806.771 414.068 806.771 413.669C806.771 413.27 806.628 412.945 806.342 412.694C806.065 412.443 805.679 412.317 805.185 412.317C804.735 412.317 804.366 412.438 804.08 412.681C803.803 412.924 803.664 413.253 803.664 413.669C803.664 414.085 803.803 414.419 804.08 414.67C804.366 414.913 804.743 415.034 805.211 415.034ZM814.323 420.156C813.569 420.156 812.898 419.97 812.308 419.597C811.719 419.224 811.255 418.687 810.917 417.985C810.588 417.274 810.423 416.429 810.423 415.45C810.423 414.471 810.588 413.63 810.917 412.928C811.255 412.217 811.719 411.676 812.308 411.303C812.898 410.93 813.569 410.744 814.323 410.744C815.077 410.744 815.749 410.93 816.338 411.303C816.928 411.676 817.387 412.217 817.716 412.928C818.054 413.63 818.223 414.471 818.223 415.45C818.223 416.429 818.054 417.274 817.716 417.985C817.387 418.687 816.928 419.224 816.338 419.597C815.749 419.97 815.077 420.156 814.323 420.156ZM814.323 418.375C814.878 418.375 815.311 418.137 815.623 417.66C815.944 417.183 816.104 416.447 816.104 415.45C816.104 414.453 815.944 413.717 815.623 413.24C815.311 412.763 814.878 412.525 814.323 412.525C813.777 412.525 813.344 412.763 813.023 413.24C812.711 413.717 812.555 414.453 812.555 415.45C812.555 416.447 812.711 417.183 813.023 417.66C813.344 418.137 813.777 418.375 814.323 418.375ZM823.436 420.156C822.682 420.156 822.01 419.97 821.421 419.597C820.831 419.224 820.368 418.687 820.03 417.985C819.7 417.274 819.536 416.429 819.536 415.45C819.536 414.471 819.7 413.63 820.03 412.928C820.368 412.217 820.831 411.676 821.421 411.303C822.01 410.93 822.682 410.744 823.436 410.744C824.19 410.744 824.861 410.93 825.451 411.303C826.04 411.676 826.499 412.217 826.829 412.928C827.167 413.63 827.336 414.471 827.336 415.45C827.336 416.429 827.167 417.274 826.829 417.985C826.499 418.687 826.04 419.224 825.451 419.597C824.861 419.97 824.19 420.156 823.436 420.156ZM823.436 418.375C823.99 418.375 824.424 418.137 824.736 417.66C825.056 417.183 825.217 416.447 825.217 415.45C825.217 414.453 825.056 413.717 824.736 413.24C824.424 412.763 823.99 412.525 823.436 412.525C822.89 412.525 822.456 412.763 822.136 413.24C821.824 413.717 821.668 414.453 821.668 415.45C821.668 416.447 821.824 417.183 822.136 417.66C822.456 418.137 822.89 418.375 823.436 418.375ZM836.518 420.156C835.764 420.156 835.093 419.97 834.503 419.597C833.914 419.224 833.45 418.687 833.112 417.985C832.783 417.274 832.618 416.429 832.618 415.45C832.618 414.471 832.783 413.63 833.112 412.928C833.45 412.217 833.914 411.676 834.503 411.303C835.093 410.93 835.764 410.744 836.518 410.744C837.272 410.744 837.944 410.93 838.533 411.303C839.123 411.676 839.582 412.217 839.911 412.928C840.249 413.63 840.418 414.471 840.418 415.45C840.418 416.429 840.249 417.274 839.911 417.985C839.582 418.687 839.123 419.224 838.533 419.597C837.944 419.97 837.272 420.156 836.518 420.156ZM836.518 418.375C837.073 418.375 837.506 418.137 837.818 417.66C838.139 417.183 838.299 416.447 838.299 415.45C838.299 414.453 838.139 413.717 837.818 413.24C837.506 412.763 837.073 412.525 836.518 412.525C835.972 412.525 835.539 412.763 835.218 413.24C834.906 413.717 834.75 414.453 834.75 415.45C834.75 416.447 834.906 417.183 835.218 417.66C835.539 418.137 835.972 418.375 836.518 418.375ZM845.63 420.156C844.876 420.156 844.205 419.97 843.615 419.597C843.026 419.224 842.562 418.687 842.224 417.985C841.895 417.274 841.73 416.429 841.73 415.45C841.73 414.471 841.895 413.63 842.224 412.928C842.562 412.217 843.026 411.676 843.615 411.303C844.205 410.93 844.876 410.744 845.63 410.744C846.384 410.744 847.056 410.93 847.645 411.303C848.235 411.676 848.694 412.217 849.023 412.928C849.361 413.63 849.53 414.471 849.53 415.45C849.53 416.429 849.361 417.274 849.023 417.985C848.694 418.687 848.235 419.224 847.645 419.597C847.056 419.97 846.384 420.156 845.63 420.156ZM845.63 418.375C846.185 418.375 846.618 418.137 846.93 417.66C847.251 417.183 847.411 416.447 847.411 415.45C847.411 414.453 847.251 413.717 846.93 413.24C846.618 412.763 846.185 412.525 845.63 412.525C845.084 412.525 844.651 412.763 844.33 413.24C844.018 413.717 843.862 414.453 843.862 415.45C843.862 416.447 844.018 417.183 844.33 417.66C844.651 418.137 845.084 418.375 845.63 418.375ZM854.743 420.156C853.989 420.156 853.317 419.97 852.728 419.597C852.138 419.224 851.675 418.687 851.337 417.985C851.007 417.274 850.843 416.429 850.843 415.45C850.843 414.471 851.007 413.63 851.337 412.928C851.675 412.217 852.138 411.676 852.728 411.303C853.317 410.93 853.989 410.744 854.743 410.744C855.497 410.744 856.168 410.93 856.758 411.303C857.347 411.676 857.806 412.217 858.136 412.928C858.474 413.63 858.643 414.471 858.643 415.45C858.643 416.429 858.474 417.274 858.136 417.985C857.806 418.687 857.347 419.224 856.758 419.597C856.168 419.97 855.497 420.156 854.743 420.156ZM854.743 418.375C855.297 418.375 855.731 418.137 856.043 417.66C856.363 417.183 856.524 416.447 856.524 415.45C856.524 414.453 856.363 413.717 856.043 413.24C855.731 412.763 855.297 412.525 854.743 412.525C854.197 412.525 853.763 412.763 853.443 413.24C853.131 413.717 852.975 414.453 852.975 415.45C852.975 416.447 853.131 417.183 853.443 417.66C853.763 418.137 854.197 418.375 854.743 418.375Z" fill="white"/>
<path d="M1213.31 257.284V259H1206.43V257.635L1209.94 254.32C1210.31 253.965 1210.56 253.661 1210.69 253.41C1210.82 253.15 1210.89 252.894 1210.89 252.643C1210.89 252.279 1210.76 252.002 1210.51 251.811C1210.27 251.612 1209.91 251.512 1209.43 251.512C1209.03 251.512 1208.67 251.59 1208.35 251.746C1208.03 251.893 1207.76 252.119 1207.55 252.422L1206.01 251.434C1206.37 250.905 1206.86 250.494 1207.48 250.199C1208.11 249.896 1208.82 249.744 1209.63 249.744C1210.3 249.744 1210.89 249.857 1211.4 250.082C1211.91 250.299 1212.3 250.611 1212.58 251.018C1212.86 251.417 1213.01 251.889 1213.01 252.435C1213.01 252.929 1212.9 253.393 1212.7 253.826C1212.49 254.259 1212.08 254.753 1211.49 255.308L1209.39 257.284H1213.31ZM1221.94 249.9V259H1219.84V251.59H1218.02V249.9H1221.94ZM1227.71 259.156C1226.96 259.156 1226.29 258.97 1225.7 258.597C1225.11 258.224 1224.65 257.687 1224.31 256.985C1223.98 256.274 1223.81 255.429 1223.81 254.45C1223.81 253.471 1223.98 252.63 1224.31 251.928C1224.65 251.217 1225.11 250.676 1225.7 250.303C1226.29 249.93 1226.96 249.744 1227.71 249.744C1228.47 249.744 1229.14 249.93 1229.73 250.303C1230.32 250.676 1230.78 251.217 1231.11 251.928C1231.45 252.63 1231.61 253.471 1231.61 254.45C1231.61 255.429 1231.45 256.274 1231.11 256.985C1230.78 257.687 1230.32 258.224 1229.73 258.597C1229.14 258.97 1228.47 259.156 1227.71 259.156ZM1227.71 257.375C1228.27 257.375 1228.7 257.137 1229.01 256.66C1229.33 256.183 1229.5 255.447 1229.5 254.45C1229.5 253.453 1229.33 252.717 1229.01 252.24C1228.7 251.763 1228.27 251.525 1227.71 251.525C1227.17 251.525 1226.73 251.763 1226.41 252.24C1226.1 252.717 1225.95 253.453 1225.95 254.45C1225.95 255.447 1226.1 256.183 1226.41 256.66C1226.73 257.137 1227.17 257.375 1227.71 257.375ZM1236.83 259.156C1236.07 259.156 1235.4 258.97 1234.81 258.597C1234.22 258.224 1233.76 257.687 1233.42 256.985C1233.09 256.274 1232.93 255.429 1232.93 254.45C1232.93 253.471 1233.09 252.63 1233.42 251.928C1233.76 251.217 1234.22 250.676 1234.81 250.303C1235.4 249.93 1236.07 249.744 1236.83 249.744C1237.58 249.744 1238.25 249.93 1238.84 250.303C1239.43 250.676 1239.89 251.217 1240.22 251.928C1240.56 252.63 1240.73 253.471 1240.73 254.45C1240.73 255.429 1240.56 256.274 1240.22 256.985C1239.89 257.687 1239.43 258.224 1238.84 258.597C1238.25 258.97 1237.58 259.156 1236.83 259.156ZM1236.83 257.375C1237.38 257.375 1237.81 257.137 1238.13 256.66C1238.45 256.183 1238.61 255.447 1238.61 254.45C1238.61 253.453 1238.45 252.717 1238.13 252.24C1237.81 251.763 1237.38 251.525 1236.83 251.525C1236.28 251.525 1235.85 251.763 1235.53 252.24C1235.21 252.717 1235.06 253.453 1235.06 254.45C1235.06 255.447 1235.21 256.183 1235.53 256.66C1235.85 257.137 1236.28 257.375 1236.83 257.375ZM1249.13 253.319C1250.41 253.319 1251.36 253.575 1251.96 254.086C1252.58 254.597 1252.89 255.282 1252.89 256.14C1252.89 256.695 1252.75 257.202 1252.47 257.661C1252.19 258.112 1251.77 258.476 1251.2 258.753C1250.63 259.022 1249.93 259.156 1249.1 259.156C1248.46 259.156 1247.83 259.074 1247.2 258.909C1246.59 258.736 1246.07 258.493 1245.63 258.181L1246.46 256.569C1246.81 256.829 1247.21 257.033 1247.66 257.18C1248.11 257.319 1248.57 257.388 1249.05 257.388C1249.58 257.388 1250 257.284 1250.3 257.076C1250.6 256.868 1250.75 256.578 1250.75 256.205C1250.75 255.815 1250.59 255.52 1250.27 255.321C1249.96 255.122 1249.41 255.022 1248.63 255.022H1246.31L1246.78 249.9H1252.33V251.59H1248.53L1248.39 253.319H1249.13ZM1262.36 257.089H1260.88V259H1258.83V257.089H1253.93V255.672L1258.22 249.9H1260.43L1256.45 255.373H1258.89V253.67H1260.88V255.373H1262.36V257.089ZM1266.46 249.9V259H1264.35V251.59H1262.53V249.9H1266.46Z" fill="white"/>
<path d="M1151.63 478.9V480.265L1148.25 488H1145.96L1149.23 480.616H1146.21V482.098H1144.34V478.9H1151.63ZM1163.63 486.284V488H1156.75V486.635L1160.26 483.32C1160.63 482.965 1160.88 482.661 1161.01 482.41C1161.14 482.15 1161.21 481.894 1161.21 481.643C1161.21 481.279 1161.08 481.002 1160.83 480.811C1160.59 480.612 1160.23 480.512 1159.75 480.512C1159.35 480.512 1158.99 480.59 1158.67 480.746C1158.35 480.893 1158.08 481.119 1157.87 481.422L1156.33 480.434C1156.69 479.905 1157.18 479.494 1157.8 479.199C1158.43 478.896 1159.14 478.744 1159.95 478.744C1160.62 478.744 1161.21 478.857 1161.72 479.082C1162.23 479.299 1162.62 479.611 1162.9 480.018C1163.18 480.417 1163.33 480.889 1163.33 481.435C1163.33 481.929 1163.22 482.393 1163.02 482.826C1162.81 483.259 1162.4 483.753 1161.81 484.308L1159.71 486.284H1163.63ZM1168.66 488.156C1167.91 488.156 1167.23 487.97 1166.64 487.597C1166.06 487.224 1165.59 486.687 1165.25 485.985C1164.92 485.274 1164.76 484.429 1164.76 483.45C1164.76 482.471 1164.92 481.63 1165.25 480.928C1165.59 480.217 1166.06 479.676 1166.64 479.303C1167.23 478.93 1167.91 478.744 1168.66 478.744C1169.41 478.744 1170.09 478.93 1170.67 479.303C1171.26 479.676 1171.72 480.217 1172.05 480.928C1172.39 481.63 1172.56 482.471 1172.56 483.45C1172.56 484.429 1172.39 485.274 1172.05 485.985C1171.72 486.687 1171.26 487.224 1170.67 487.597C1170.09 487.97 1169.41 488.156 1168.66 488.156ZM1168.66 486.375C1169.21 486.375 1169.65 486.137 1169.96 485.66C1170.28 485.183 1170.44 484.447 1170.44 483.45C1170.44 482.453 1170.28 481.717 1169.96 481.24C1169.65 480.763 1169.21 480.525 1168.66 480.525C1168.11 480.525 1167.68 480.763 1167.36 481.24C1167.05 481.717 1166.89 482.453 1166.89 483.45C1166.89 484.447 1167.05 485.183 1167.36 485.66C1167.68 486.137 1168.11 486.375 1168.66 486.375ZM1177.77 488.156C1177.02 488.156 1176.35 487.97 1175.76 487.597C1175.17 487.224 1174.7 486.687 1174.37 485.985C1174.04 485.274 1173.87 484.429 1173.87 483.45C1173.87 482.471 1174.04 481.63 1174.37 480.928C1174.7 480.217 1175.17 479.676 1175.76 479.303C1176.35 478.93 1177.02 478.744 1177.77 478.744C1178.53 478.744 1179.2 478.93 1179.79 479.303C1180.38 479.676 1180.84 480.217 1181.16 480.928C1181.5 481.63 1181.67 482.471 1181.67 483.45C1181.67 484.429 1181.5 485.274 1181.16 485.985C1180.84 486.687 1180.38 487.224 1179.79 487.597C1179.2 487.97 1178.53 488.156 1177.77 488.156ZM1177.77 486.375C1178.33 486.375 1178.76 486.137 1179.07 485.66C1179.39 485.183 1179.55 484.447 1179.55 483.45C1179.55 482.453 1179.39 481.717 1179.07 481.24C1178.76 480.763 1178.33 480.525 1177.77 480.525C1177.23 480.525 1176.79 480.763 1176.47 481.24C1176.16 481.717 1176 482.453 1176 483.45C1176 484.447 1176.16 485.183 1176.47 485.66C1176.79 486.137 1177.23 486.375 1177.77 486.375ZM1190.85 488.156C1190.1 488.156 1189.43 487.97 1188.84 487.597C1188.25 487.224 1187.79 486.687 1187.45 485.985C1187.12 485.274 1186.95 484.429 1186.95 483.45C1186.95 482.471 1187.12 481.63 1187.45 480.928C1187.79 480.217 1188.25 479.676 1188.84 479.303C1189.43 478.93 1190.1 478.744 1190.85 478.744C1191.61 478.744 1192.28 478.93 1192.87 479.303C1193.46 479.676 1193.92 480.217 1194.25 480.928C1194.59 481.63 1194.75 482.471 1194.75 483.45C1194.75 484.429 1194.59 485.274 1194.25 485.985C1193.92 486.687 1193.46 487.224 1192.87 487.597C1192.28 487.97 1191.61 488.156 1190.85 488.156ZM1190.85 486.375C1191.41 486.375 1191.84 486.137 1192.15 485.66C1192.47 485.183 1192.64 484.447 1192.64 483.45C1192.64 482.453 1192.47 481.717 1192.15 481.24C1191.84 480.763 1191.41 480.525 1190.85 480.525C1190.31 480.525 1189.87 480.763 1189.55 481.24C1189.24 481.717 1189.09 482.453 1189.09 483.45C1189.09 484.447 1189.24 485.183 1189.55 485.66C1189.87 486.137 1190.31 486.375 1190.85 486.375ZM1199.97 488.156C1199.21 488.156 1198.54 487.97 1197.95 487.597C1197.36 487.224 1196.9 486.687 1196.56 485.985C1196.23 485.274 1196.07 484.429 1196.07 483.45C1196.07 482.471 1196.23 481.63 1196.56 480.928C1196.9 480.217 1197.36 479.676 1197.95 479.303C1198.54 478.93 1199.21 478.744 1199.97 478.744C1200.72 478.744 1201.39 478.93 1201.98 479.303C1202.57 479.676 1203.03 480.217 1203.36 480.928C1203.7 481.63 1203.87 482.471 1203.87 483.45C1203.87 484.429 1203.7 485.274 1203.36 485.985C1203.03 486.687 1202.57 487.224 1201.98 487.597C1201.39 487.97 1200.72 488.156 1199.97 488.156ZM1199.97 486.375C1200.52 486.375 1200.95 486.137 1201.27 485.66C1201.59 485.183 1201.75 484.447 1201.75 483.45C1201.75 482.453 1201.59 481.717 1201.27 481.24C1200.95 480.763 1200.52 480.525 1199.97 480.525C1199.42 480.525 1198.99 480.763 1198.67 481.24C1198.35 481.717 1198.2 482.453 1198.2 483.45C1198.2 484.447 1198.35 485.183 1198.67 485.66C1198.99 486.137 1199.42 486.375 1199.97 486.375ZM1209.08 488.156C1208.32 488.156 1207.65 487.97 1207.06 487.597C1206.47 487.224 1206.01 486.687 1205.67 485.985C1205.34 485.274 1205.18 484.429 1205.18 483.45C1205.18 482.471 1205.34 481.63 1205.67 480.928C1206.01 480.217 1206.47 479.676 1207.06 479.303C1207.65 478.93 1208.32 478.744 1209.08 478.744C1209.83 478.744 1210.5 478.93 1211.09 479.303C1211.68 479.676 1212.14 480.217 1212.47 480.928C1212.81 481.63 1212.98 482.471 1212.98 483.45C1212.98 484.429 1212.81 485.274 1212.47 485.985C1212.14 486.687 1211.68 487.224 1211.09 487.597C1210.5 487.97 1209.83 488.156 1209.08 488.156ZM1209.08 486.375C1209.63 486.375 1210.07 486.137 1210.38 485.66C1210.7 485.183 1210.86 484.447 1210.86 483.45C1210.86 482.453 1210.7 481.717 1210.38 481.24C1210.07 480.763 1209.63 480.525 1209.08 480.525C1208.53 480.525 1208.1 480.763 1207.78 481.24C1207.47 481.717 1207.31 482.453 1207.31 483.45C1207.31 484.447 1207.47 485.183 1207.78 485.66C1208.1 486.137 1208.53 486.375 1209.08 486.375Z" fill="white"/>
</svg>
