<svg width="23" height="24" viewBox="0 0 23 24" fill="none" xmlns="http://www.w3.org/2000/svg">
<path d="M3.867 18.575L3.1111 19.0041L0.85205 17.7215C0.669552 17.6177 0.452909 17.6288 0.279045 17.7505C0.105574 17.8726 0 18.0874 0 18.3192V23.3315C0 23.7005 0.263739 24 0.588704 24H3.96825C3.90271 23.791 3.867 23.5659 3.867 23.3315V18.575Z" fill="white"/>
<path d="M21.9432 17.7505C21.7693 17.6288 21.5527 17.6177 21.3702 17.7215L19.1111 19.0041L18.3552 18.575V23.3315C18.3552 23.5659 18.3195 23.791 18.254 24H21.6335C21.9585 24 22.2222 23.7005 22.2222 23.3315V18.3192C22.2222 18.0874 22.1166 17.8726 21.9432 17.7505Z" fill="white"/>
<path d="M8.45309 11.3016L9.5794 10.0987C9.9716 9.67985 10.493 9.44923 11.0476 9.44923C11.6022 9.44923 12.1236 9.67985 12.5158 10.0987L13.6422 11.3016L14.7689 10.0987C14.8557 10.0061 14.9489 9.9223 15.0476 9.84888L11.7397 2.78294V1.37408C11.7397 0.965868 11.4299 0.634918 11.0476 0.634918C10.6654 0.634918 10.3555 0.965868 10.3555 1.37408V2.78294L7.04762 9.84838C7.14637 9.9223 7.23957 10.0056 7.32678 10.0987L8.45309 11.3016Z" fill="white"/>
<path fill-rule="evenodd" clip-rule="evenodd" d="M15.5506 10.7035C15.7376 10.5126 16.0189 10.4555 16.2631 10.5588C16.5074 10.6622 16.6667 10.9056 16.6667 11.1756V23.3324C16.6667 23.7011 16.374 24 16.0129 24H6.20932C5.84827 24 5.55556 23.7011 5.55556 23.3324V11.1756C5.55556 10.9056 5.71486 10.6622 5.95915 10.5588C6.20344 10.4554 6.48469 10.5126 6.67162 10.7035L8.6602 12.7343L10.6488 10.7035C10.9041 10.4428 11.3181 10.4428 11.5734 10.7035L13.562 12.7343L15.5506 10.7035ZM8.35659 18.3266C8.35659 19.8777 9.59224 21.1396 11.1111 21.1396C12.63 21.1396 13.8656 19.8777 13.8656 18.3266C13.8656 16.7756 12.6299 15.5137 11.1111 15.5137C9.59229 15.5137 8.35659 16.7756 8.35659 18.3266Z" fill="white"/>
<path d="M11.1111 16.8571C10.2358 16.8571 9.5238 17.5692 9.5238 18.4444C9.5238 19.3197 10.2359 20.0318 11.1111 20.0318C11.9863 20.0318 12.6984 19.3197 12.6984 18.4444C12.6984 17.5692 11.9864 16.8571 11.1111 16.8571Z" fill="white"/>
</svg>
