<svg width="18" height="22" viewBox="0 0 18 22" fill="none" xmlns="http://www.w3.org/2000/svg">
<path fill-rule="evenodd" clip-rule="evenodd" d="M8.49467 4.12611C9.96732 4.07223 11.3592 4.59754 12.4188 5.61672C13.4783 6.63142 14.062 8.0053 14.062 9.47346C14.062 10.6947 13.6579 11.8441 12.8992 12.8004C11.6734 14.3359 11.0269 16.0779 11.0269 17.8379C11.0269 17.8379 11.1616 18.6641 10.56 18.6641H6.86038C6.27222 18.6641 6.39345 17.8379 6.39345 17.8379C6.39345 16.0375 5.75589 14.282 4.59753 12.8902C3.79385 11.9294 3.35385 10.7082 3.35834 9.4555C3.36732 6.62693 5.67059 4.23836 8.49467 4.12611ZM10.093 17.7302C10.12 15.7906 10.8339 13.8869 12.1673 12.2167C12.7959 11.431 13.1236 10.4837 13.1281 9.47346C13.1281 8.26121 12.6477 7.12979 11.7722 6.29019C10.9012 5.4506 9.75181 5.01509 8.53508 5.05999C6.20487 5.15428 4.30569 7.1253 4.29671 9.45999C4.29222 10.4926 4.65589 11.4984 5.31589 12.2931C6.591 13.8241 7.30038 15.7502 7.32732 17.7302H10.093Z" fill="#66BB6A"/>
<path d="M14.8702 2.5502C14.6862 2.36612 14.3898 2.36612 14.2102 2.5502L13.0698 3.69061C12.8857 3.87469 12.8857 4.17102 13.0698 4.35061C13.2539 4.5302 13.5502 4.53469 13.7298 4.35061L14.8702 3.2102C15.0543 3.03061 15.0543 2.73428 14.8702 2.5502Z" fill="#66BB6A"/>
<path d="M10.5779 19.3016H6.84243C6.58202 19.3016 6.37549 19.5127 6.37549 19.7686C6.37549 20.029 6.58651 20.2355 6.84243 20.2355H10.5779C10.8383 20.2355 11.0449 20.0245 11.0449 19.7686C11.0449 19.5127 10.8339 19.3016 10.5779 19.3016Z" fill="#66BB6A"/>
<path d="M9.873 21.0616H7.55178C7.29137 21.0616 7.08484 21.2727 7.08484 21.5286C7.08484 21.789 7.29586 21.9955 7.55178 21.9955H9.873C10.1334 21.9955 10.3399 21.7845 10.3399 21.5286C10.3399 21.2727 10.1289 21.0616 9.873 21.0616Z" fill="#66BB6A"/>
<path d="M8.71022 2.54571C8.97063 2.54571 9.17716 2.33469 9.17716 2.07878V0.466939C9.17716 0.206531 8.96614 0 8.71022 0C8.45431 0 8.24329 0.21102 8.24329 0.466939V2.07878C8.24329 2.33918 8.44982 2.54571 8.71022 2.54571Z" fill="#66BB6A"/>
<path d="M4.35061 4.3551C4.53469 4.17101 4.53469 3.87469 4.35061 3.6951L3.2102 2.55469C3.02612 2.37061 2.72979 2.37061 2.5502 2.55469C2.37061 2.73877 2.36612 3.0351 2.5502 3.21469L3.69061 4.3551C3.87469 4.53469 4.17102 4.53469 4.35061 4.3551Z" fill="#66BB6A"/>
<path d="M16.9534 8.24326H15.3416C15.0812 8.24326 14.8746 8.45428 14.8746 8.71019C14.8746 8.96611 15.0857 9.17713 15.3416 9.17713H16.9534C17.2138 9.17713 17.4203 8.96611 17.4203 8.71019C17.4203 8.45428 17.2093 8.24326 16.9534 8.24326Z" fill="#66BB6A"/>
<path d="M2.07878 8.24326H0.466939C0.206531 8.24326 0 8.45428 0 8.71019C0 8.96611 0.21102 9.17713 0.466939 9.17713H2.07878C2.33918 9.17713 2.54571 8.96611 2.54571 8.71019C2.54571 8.45428 2.33918 8.24326 2.07878 8.24326Z" fill="#66BB6A"/>
</svg>
