<svg width="65" height="64" viewBox="0 0 65 64" fill="none" xmlns="http://www.w3.org/2000/svg">
<g filter="url(#filter0_d)">
<path fill-rule="evenodd" clip-rule="evenodd" d="M32.5 41C41.0604 41 48 34.2843 48 26C48 17.7157 41.0604 11 32.5 11C23.9396 11 17 17.7157 17 26C17 34.2843 23.9396 41 32.5 41Z" fill="white"/>
<path fill-rule="evenodd" clip-rule="evenodd" d="M32.5 41C41.0604 41 48 34.2843 48 26C48 17.7157 41.0604 11 32.5 11C23.9396 11 17 17.7157 17 26C17 34.2843 23.9396 41 32.5 41Z" stroke="white" stroke-width="14"/>
<path fill-rule="evenodd" clip-rule="evenodd" d="M32.5 41C41.0604 41 48 34.2843 48 26C48 17.7157 41.0604 11 32.5 11C23.9396 11 17 17.7157 17 26C17 34.2843 23.9396 41 32.5 41Z" stroke="#66BB6A" stroke-width="14"/>
</g>
<path fill-rule="evenodd" clip-rule="evenodd" d="M40.6112 21.8164L38.7869 20.5661L37.2321 21.6317L39.4448 23.1488V32.1539H25.5552V23.1077L31.9483 18.0105L34.1217 19.4999L35.6769 18.4342L32.306 16.1238C32.049 15.9475 31.7298 15.9604 31.4833 16.157L24.3441 21.8491C24.1291 22.0208 24 22.3079 24 22.6153V33.0769C24 33.5869 24.3484 34 24.7776 34H40.2224C40.6516 34 41 33.5869 41 33.0769V22.6153C41 22.2862 40.8519 21.9807 40.6112 21.8164" fill="#66BB6A"/>
<defs>
<filter id="filter0_d" x="0" y="0" width="65" height="64" filterUnits="userSpaceOnUse" color-interpolation-filters="sRGB">
<feFlood flood-opacity="0" result="BackgroundImageFix"/>
<feColorMatrix in="SourceAlpha" type="matrix" values="0 0 0 0 0 0 0 0 0 0 0 0 0 0 0 0 0 0 127 0"/>
<feOffset dy="6"/>
<feGaussianBlur stdDeviation="5"/>
<feColorMatrix type="matrix" values="0 0 0 0 0.462745 0 0 0 0 0.768627 0 0 0 0 0.490196 0 0 0 1 0"/>
<feBlend mode="normal" in2="BackgroundImageFix" result="effect1_dropShadow"/>
<feBlend mode="normal" in="SourceGraphic" in2="effect1_dropShadow" result="shape"/>
</filter>
</defs>
</svg>
